<svg id="Layer_1" data-name="Layer 1" xmlns="http://www.w3.org/2000/svg" viewBox="0 0 1555.712 700.735">
  <defs>
    <style>
      .cls-1 {
        fill: #f3f2f1;
      }

      .cls-2 {
        fill: none;
        stroke: #000;
        stroke-linecap: round;
        stroke-linejoin: round;
        stroke-width: 2px;
      }

      .cls-3 {
        fill: #2d2c2b;
      }
    </style>
  </defs>
  <title>9fcc39f4-2571-417f-951d-e0796b3c0029</title>
  <g>
    <g>
      <g>
        <path class="cls-1" d="M175.514,37.835q-0.008-13.148-.019-26.3c0-2.43-.348-4.86-0.559-7.616C178.262,0.868,188.064-.142,192.11,2.6c0.847,0.573,1.881,1.708,1.876,2.578-0.066,10.888-.618,21.775-0.739,32.662"/>
        <path class="cls-1" d="M110.313,169.96c1.284-4.243,5.617-5.862,10.366-4.423,2.933,0.889,6.113.959,9.183,1.4l0.281-1.855-5.51-.615-0.215-.536,8.6-2.166c0.332,5.669.589,10.6,0.919,15.531,0.307,4.594,1.4,5.242,6.092,4.653,1.073-.135,2.257,1.424,3.507,1.739,3.524,0.888,7.108,1.535,10.953,2.337-0.006,4.319,1.479,8.761-2.5,12.437-0.549.507,0.325,2.554,0.523,3.881-3.182.144-6.347,0.294-9.365,0.438l2.7,6.1c5.138,0.267,10.939.613,16.746,0.8,0.607,0.02,1.245-.9,1.868-1.379,1.774-.338,3.8-0.239,5.276-1.1,4.487-2.606,8.41-1.812,12.029,2.144,0.987,1.079,3.462,1.153,5.233,1.09,5.643-.2,11.276-0.678,17.079-1.061a8.436,8.436,0,0,1,12.211-3.48c1.721,1.2,4.922,3.064,5.6,2.478a17.187,17.187,0,0,0,5.032-7.348c0.763-2.352-.051-5.216-0.159-7.667,3.055-1.513,6.06-3,9.068-4.483,3.079,0.183,6.207.719,9.195,0.289,0.746-.107,1.407-3.313,1.479-5.12a148.717,148.717,0,0,0-.047-14.947c-0.108-1.762-1.42-3.451-2.182-5.173L247.9,164.7c-0.265,2.989-.629,5.518-0.686,8.053-0.112,4.994-.207,10,0.012,14.983a10.981,10.981,0,0,0,1.716,5.477c1.753,2.563,4.315,4.523,3.443,8.3-0.18.78,1.8,2.98,2.488,2.857a9.757,9.757,0,0,0,4.707-2.559c0.611-.582.208-2.227,0.244-2.967l0.717,5.067,14.246-3.376c-3.2-5.413.945-5.8,3.92-6.932,2.232-.848,4.509-1.579,7.048-2.459l0.611,6.549,16.613-5.769-1.276-1a38.991,38.991,0,0,0,1.763-6.261,73.2,73.2,0,0,0,.545-11.092c-0.119-3.159-1.445-6.327-1.261-9.433,0.38-6.416,1.359-12.8,2.188-19.186,0.823-6.335,1.577-12.691,2.8-18.953,0.274-1.407,2.36-2.461,3.229-3.306,0.552,2.558.951,4.4,1.344,6.248l-3.514-2.136v9.955c2.065-2.349,8.228-2.383,4.217-7.451,3.623,6.89,10.62,8.463,18.038,5.247,2.785-1.207,6.679.264,10.069,0.29,1.929,0.015,5.416-.13,5.523-0.705,0.475-2.537-.022-5.256-0.231-9.073,0.815,2.044,1.875,3.52,1.93,5.032,0.356,9.691.486,19.389,0.707,29.085,0.033,1.451.152,2.9,0.305,5.707l9.689-11.815a24.574,24.574,0,0,1-4.363-1.681,34,34,0,0,1-3.654-3.187,24.323,24.323,0,0,1,4.6-2.593c1.36-.432,3.542.528,4.342-0.219a18.642,18.642,0,0,0,3.665-5.819c0.1-.218-1.855-1.578-2.985-2.16-2.093-1.077-4.3-1.929-6.371-3.044-0.121-.066.474-2.34,0.9-2.4a71.766,71.766,0,0,1,7.481-.425,12.7,12.7,0,0,1,1.7.2l-0.37-2.972L364,128.786c0.471,3.683,1.449,7.384,1.323,11.047-0.489,14.2-1.385,28.38-2.021,42.573-0.407,9.078-.363,18.184-1.031,27.241-0.345,4.681-1.8,9.281-2.177,14.047l1.44-4.51,0.934,0.194c-0.339,3.36-.851,6.714-0.985,10.082-0.443,11.138-.758,22.281-1.106,33.422q-1.587,50.888-3.174,101.776-1.406,43.146-3,86.286c-0.424,11.63-1.172,23.251-1.436,34.883a11.548,11.548,0,0,0,2.345,6.71c11.271,14.754,14.732,31.084,12.71,49.53-1.66,15.14-.922,30.533-1.473,45.806-0.537,14.893-1.212,29.786-2.2,44.654-0.175,2.64-2.172,5.158-3.327,7.733,0.772-5.025,1.967-10.028,2.219-15.077,0.4-8.117.008-16.271,0.27-24.4,0.407-12.644,1.095-25.279,1.623-37.92a41.006,41.006,0,0,0-.233-4.159l-1.294-.165c-0.564,2.3-1.511,4.59-1.627,6.916q-0.758,15.194-1.076,30.409c-0.1,4.993.646,10.022,0.314,14.988-0.627,9.39-1.789,18.744-2.574,28.126-0.04.474,1.372,1.07,2.108,1.61-2.161,6.352-4.627,7.049-10.388,2.938L357.616,645l-3.564-10.629c0.995-.956,2.721-1.825,2.847-2.884a91.305,91.305,0,0,0,.137-10.33c-2.717,3.559-5.125,6.591-7.339,9.758-0.3.423,0.392,1.533,0.625,2.326l-9.63,6.5,6.242,4.02c-5.075-2.543-8.72-1.512-13.452,2.328a184.436,184.436,0,0,1-59.834,32.464c-15.278,4.911-31.57,6.878-47.529,9.406-21.939,3.476-44.081,3.344-66.214,2.12-3.34-.185-6.666-0.619-10.2.23l2.242,1.249-0.082.393-24.368-6.9-0.446,1.413,5.581,2.181c-4.391.336-7.971,0.851-9.361,5.288-0.156.5-3.516-.009-5.39-0.05,5.875-.168,2.6-4.073,3.2-7.312-3.984,1.05-6.375,2.347-5.564,6.461-1.916,1.175-3.894,2.263-5.731,3.551-1.9,1.333-3.668,2.859-6.073,3.288,0.627-1.436,1.605-2.827,1.8-4.319a46.52,46.52,0,0,0-.09-6.479c-0.092-6.627-1.471-8.919-7.823-10.585-3.629-.952-4.2-2.989-4.243-6.145-0.216-15.15-.564-30.3-0.875-45.446-0.225-10.939,1.078-12.293,11.414-12.342l-12.624-3.669V695.6l-0.744.022c0-4.843-.121-9.689.046-14.526,0.1-2.842-.736-4.149-3.613-5.437-20.223-9.054-40.149-18.83-56.824-33.739-12.481-11.159-22.061-24.6-26.316-41.085-1.371-5.311-1.195-11.021-1.726-16.548l1.293-.148c0.332,3.125.132,6.437,1.147,9.322s3.209,5.368,4.968,7.972c0.543,0.8,1.423,1.371,2.034,2.138,5.48,6.884,11,13.736,16.378,20.7,6.453,8.356,15.934,12.718,24.3,18.519a126.055,126.055,0,0,0,14.607,8.389c4.959,2.532,10.172,4.562,15.193,6.98,1.246,0.6,2.18,1.851,3.261,2.8l-11.762-2.709-2.678,5.08,19.4,3.65-5.11-6.145c1.283-.559,3.723-1.324,3.666-1.643a47.084,47.084,0,0,0-2.338-8.164c-0.186-.5-1.465-0.679-2.273-0.836-13.015-2.528-23.249-10.557-34.394-16.931a119.71,119.71,0,0,1-29.754-24.553c-4.212-4.7-7.226-10.48-10.783-15.771l2.106-1.51c2.045,2.871,3.829,5.983,6.2,8.548,2.656,2.869,6.1,5.012,8.732,7.9,2.333,2.562,3.4,6.914,9.59,4.341-4.335-3.494-3.925-9.7-10.742-10.138-2.226-.145-4.7-3.6-6.216-6.064a175.457,175.457,0,0,1-8.593-16.041c-1.5-3.11-4.211-7.01,2.217-7.546-2.889-5.883-5.932-11-7.991-16.477-5.727-15.24-6.206-30.73-.541-46.122,1.581-4.3,4.713-8.094,5.869-12.455,1.232-4.649,1.138-9.69,1.29-14.571,0.087-2.789-.548-5.595-0.754-8.4-0.184-2.515-.122-4.625,2.869-6.094,1.353-.665,2.229-3.7,2.171-5.624-0.788-26.275-1.774-52.544-2.719-78.815-0.377-10.475-.828-20.947-1.144-31.423-0.757-25.118-1.388-50.24-2.2-75.357q-0.8-24.94-1.992-49.867c-0.425-8.88-1.53-17.732-1.82-26.613-0.313-9.6.211-19.226-.1-28.826-0.2-6.062-1.463-12.082-1.865-18.146-0.322-4.862-.065-9.762-0.065-15.163,2.712-.18,5.558-0.758,8.274-0.388,1.384,0.188,2.536,2.08,3.793,3.2-1.375,1.035-2.621,2.4-4.165,3-1.28.5-2.911,0.1-4.428,0.1,0.885,7.12,2,8.168,8.312,8.145a6.125,6.125,0,0,1,2.472.066,42.533,42.533,0,0,1,4.237,2.652,24.265,24.265,0,0,1-3.054,3.378c-0.84.652-2.1,0.764-3.576,1.251,3.744,4.44,7.033,8.895,14,6.145,0.726-3.981.669-7.933-3.074-10.957a0.886,0.886,0,0,0-.784.278,9.927,9.927,0,0,0-.62,1.754l-0.41-6.895c8.352,0.3,4.151-6.037,5.418-9.335l0.5,7.888a52.807,52.807,0,0,0,5.66-.393c7.9-1.43,12.022,2.089,12.365,10.191,0.067,1.58,1.625,3.178,2.706,4.608a30.047,30.047,0,0,0,3.134,3.124c-1.841-.341-5.134-1.291-5.287-0.927-1.012,2.421-1.439,5.154,2.049,6.311-3.017,1.346-3.5-.5-3.521-2.813-0.033-3.747-.009-7.494-0.009-11.918-5.123.761-9.213,1.243-13.241,2.041-1.23.244-3.222,1.333-3.24,2.075a11.435,11.435,0,0,0,1.476,5.439c0.535,0.995,2.03,1.473,3.094,2.183l-1.28.484c0.48,2.653.072,6.216,1.643,7.751,2.483,2.426,5.339,5.2,10.236,2.334,5.177-3.033,8.7.131,8.168,6.114-0.051.565,0.595,1.192,0.917,1.79l1.288-.194a67.02,67.02,0,0,1,.069-8.674c0.6-4.595-1.242-6.631-5.732-6.576l4.24-1.5-1.069-4.13,5.707,8.112,1.787-6.3,0.858,4.9c-5.8,2.267-6.493,5.527-3.368,15.827l8.361-10.641a88.924,88.924,0,0,0-4.48,7.716c-0.591,1.27-.947,3.677-0.266,4.283a6.633,6.633,0,0,0,4.958,1.432c0.812-.139,1.573-2.583,1.738-4.054a34.98,34.98,0,0,0-.057-7.46c-0.068-.657-1.334-1.19-2.05-1.78l3.009-3.972c0,3.985.188,6.826-.044,9.632-0.347,4.191.665,6.718,5.576,5.894a11.905,11.905,0,0,1,3.375.439c0.9,1.385,3.582,2.313,1.1,4.635-0.228.213,0.626,2.427,1.293,2.62,4.784,1.385,9.649,2.486,14.648,3.717l0.591-7.92-17.765-2.922c-3.587-2.586-2.931-6.28-2.681-9.923a16.056,16.056,0,0,0-.3-3.231c2.2-1.094,4.735-2.506,7.4-3.632a18.38,18.38,0,0,1,5.431-1.472c3.714-.328,7.457-0.394,11.189-0.428a7.813,7.813,0,0,1,5.13,1.669q2.614-1.725,5.228-3.449-4.358,4.885-8.7,9.751c7.9,3.588,12.717,3.785,15.344.6l-2.489-2.055c6.264,1.923,7.935-.932,13.81-8.235C122.377,166.962,116.331,165.786,110.313,169.96ZM99.058,551.707L95.664,554.7l8.9,5.031c0-3.316.014-5.3,0-7.281-0.026-2.94-1.62-2.778-3.611-1.8,3.622-3.936,2.211-8.475,2.009-14.046L87.655,547.382C91.1,551.5,94.145,554.242,99.058,551.707ZM290.781,513.09l-12.568-4.044c0.688,4.306.027,9.172,2.091,11.06,3.434,3.141,8.616,4.372,13.835,6.761-0.323-5.666,1.9-10.685-3.51-13.862l5.1,0.96c-0.963-2.187-1.2-4.3-2.234-4.805-4.735-2.343-9.692-4.238-14.569-6.295l-1.261,1.458c1.135,1.269,2.056,2.891,3.448,3.737C284.21,509.942,287.543,511.437,290.781,513.09ZM257.15,563.557c-1.837,1.078-3.607,2.3-5.525,3.2-3.453,1.631-5.937,10.307-3.549,13.306,0.439,0.551,1.785.379,2.713,0.541-1.123,1.718-2.859,3.315-3.23,5.183-0.6,3.005-.163,6.2-0.406,9.3-0.274,3.487.973,5.218,4.627,4.736a4.286,4.286,0,0,1-1.516,1.125c-18.59,2.421-37.136,6.03-55.8,6.8-17.517.72-35.155-1.611-52.746-2.476-1.717-.084-3.477.706-5.516,1.157-1.826-3.9-8.492-4.168-12.213.507-4.25,5.338-3.35,7.4,3.341,8.8,4.079,0.853,8.658-.4,11.7,2.326-0.9,1.2-2.231,2.276-2.415,3.522-0.092.627,1.838,2.138,2.966,2.268,10.178,1.173,20.4,3.1,30.573,2.939,19.847-.313,39.888-0.382,59.449-3.265,18.614-2.743,36.77-8.76,55-13.807,3.085-.854,6.879-3.556,7.937-6.324,1.7-4.449,3.7-6.887,8.227-8.975,7.316-3.374,14.082-8.128,20.626-12.921,4.162-3.048,7.5-7.218,11.417-11.091-6.935-3.354-6.938-3.358-12.017.109-8.609,5.877-16.83,12.433-27.074,15.442l1.814-2.869-1.264.12c-0.446-2.671-.2-5.745-1.484-7.93-2.608-4.456-6.035-8.433-9.72-13.411-2.365,2.95-5.048,4.78-5.31,6.909-0.767,6.231-.567,12.581-0.75,18.884-0.077,2.656,1.411,3.429,3.776,3.162L268.688,595.8c-0.671-2.115-1.832-4.212-1.91-6.348-0.155-4.216.429-8.455,0.393-12.682-0.009-1.1-1.175-2.194-1.809-3.291l2.752-13.465-11.03,3.558c2.988-1.622,6.039-3.137,8.944-4.9,2.808-1.7,3.316-5.831.745-6.687-6.2-2.065-12.6-3.549-19.278-5.367v19.971C250.938,565.511,254.055,564.529,257.15,563.557Zm40.158-301.832c1.046-1.6,2.917-3.152,3-4.794,0.335-7.05.143-14.125,0.143-20.607-9.524,5.973-18.5,12.966-14.378,27.405h3.948c-6.642,2.3-7.067,7.551-6.594,13.422,0.217,2.694,1.31,3.916,3.949,3.837-0.988,2.049-2.76,4.069-2.835,6.15-0.48,13.274-.557,26.561-0.822,39.843-0.734,36.7-1.537,73.391-2.111,110.09-0.026,1.647,1.923,3.325,2.951,4.989l-3.724,1.555,15.579,5.983-2.111-3.653c0.753-1.108,2.081-2.176,2.162-3.331,0.382-5.467.479-10.957,0.574-16.441,0.228-13.144.29-26.292,0.614-39.433,0.875-35.414,1.863-70.825,2.725-106.24,0.023-.939-0.879-1.9-1.349-2.851,0.514-4.783,1.122-9.561,1.395-14.357C300.444,262.831,298.395,262.25,297.309,261.725ZM157.7,590.2c-6.338,2.682-10.089,7.107-9.891,14.548l22.415,1.945c0.336-4.081.952-7.672,0.755-11.217-0.072-1.3-1.861-3.192-3.229-3.6-3.283-.984-6.782-1.25-10.206-1.815H170.7c1.818-11.315,1.536-11.738-9.142-13.1-2.624-.335-5.255-0.664-7.893-0.822a16.148,16.148,0,0,0-3.377.5l-1.954,1.925c9.883-.791,8.079,5.165,8.512,9.87A5.757,5.757,0,0,0,157.7,590.2Zm-46.685-335.5-8.384,9.054c12.81,4.543,12.814,4.543,12.509-7.945-0.019-.8-0.177-1.594-0.277-2.448a4.013,4.013,0,0,0-1.577-.165,14.489,14.489,0,0,0-2.1,1.232c1.3-2.079,3.618-4.1,3.733-6.246,0.442-8.228.179-16.494,0.179-24.572-14.7-3.991-14.7-3.991-14.448,10.117,0.006,0.332.014,0.665,0.014,1,0,8.9,0,17.793,0,27.367ZM252.168,421.948c1.332-2.7,3.758-5.376,3.827-8.11,0.667-26.467.878-52.944,1.365-79.416,0.121-6.609.765-13.208,1.169-19.811a2.227,2.227,0,0,0-.114.484c-0.331,33.686-.688,67.372-0.856,101.059-0.006,1.258,1.838,2.525,2.82,3.788-5.517,3.21-1.495,7.885-2.811,12.3a20.514,20.514,0,0,0,10.37-11.054c3.6,1.6,2.53-1.446,2.567-2.818,0.269-10.135.408-20.273,0.566-30.411q0.762-48.887,1.528-97.775c0.045-2.771-.815-5.363-0.029-8.372,0.945-3.619.223-7.672,0.223-11.886-3.957.62-7.053,1.106-10.114,1.569,2.411-.926,4.859-1.767,7.216-2.815,1.086-.483,2.789-1.312,2.845-2.083,0.288-4,.134-8.029.134-12.573-3.972,1.444-6.949,2.466-9.881,3.606-4.686,1.821-2.913,6.227-3.356,9.525-0.171,1.275,2.01,2.867,3.12,4.314-2.956.867-3.96,2.8-3.822,5.876,0.314,7.031.491,14.077,0.413,21.114-0.06,5.438-.591,10.871-0.918,16.321V290.318c-5.823-.918-7.433,1.141-7.467,5.869-0.186,26.457-.68,52.912-0.927,79.369-0.145,15.608-.027,31.219-0.027,47.16l2.639-.9a28.8,28.8,0,0,0-2.353,4.389c-1.077,3.189.444,4.132,4.938,3.507ZM88.733,591.313L75.942,585.83l3.082-9.221c-7.049,3.165-7.642,4.934-4.421,8.6-4.634-2-4.236,1.987-5.325,4.783,0.6-5.613-2.611-7.889-6.749-10.074A102.688,102.688,0,0,1,26.4,548.536c-1.986-2.781-3.821-5.669-5.726-8.508l-1.251.641c1.483,4.144,2.625,8.451,4.509,12.4,7.786,16.338,21.18,27.273,35.774,37.2,5.9,4.012,14.629,4.7,16.426,14.3,0.432,2.3,6.128,3.536,9.29,5.446,2.183,1.319,3.095-.029,4.144-1.513L104.3,613.03l0.786-1.121c-7.789-1.439-3.129-8.211-5.337-11.8L89.5,608.5l10.016-12.429c-3.934-1.769-7.434-3.343-10.952-4.933l15.626,4.171v-9.237c-2.714-.742-5.25-1.455-7.8-2.124-2.487-.654-4.985-1.263-6.772-1.713l-3.174,6.941Zm60.289-165.72-2.91,3.913,1.024,1.026,9.97-.808,0.424-1.5a34.227,34.227,0,0,0-4.375-2.031,24.068,24.068,0,0,0-4.208-.573c1.254-.217,2.555-0.765,3.752-0.591,3.789,0.549,4.905-.934,4.874-4.675q-0.469-55.411-.679-110.824c-0.026-4.753,0-9.507,0-14.551-2.417,0-3.72.013-5.023,0-6.648-.078-6.654-0.081-6.649,6.708,0.01,13.981-.071,27.963.06,41.942q0.367,39.171.956,78.34C146.26,423.751,145.469,426.431,149.022,425.594Zm-53.1-140.17-14.212-3.476,3.1,159.059,6.633-2.041-5.793,4.072,0.587,1.153,13.293-4.575-0.516-1.6H94.318c5.243-1.172,6.656-4.588,5.677-9.513a22.435,22.435,0,0,1-.238-3.981q-1.114-67.184-2.278-134.367c-0.029-1.591-1.045-3.164-1.609-4.753a33.36,33.36,0,0,1,5.5.041c4.776,0.8,9.511,1.843,14.263,2.789l0.484-1.719c-2.188-.738-4.389-1.439-6.561-2.221-4.081-1.47-10.231.485-10.984-6.6a1.766,1.766,0,0,0-1.191-.79c-5.072-1.238-10.154-2.431-14.953-3.569-2.546,4.9-.846,6.7,3.224,7.841C89.194,282.174,92.507,283.978,95.92,285.424ZM212.471,601.418c1.674,1.154,3.411,3.372,5.009,3.275,6.693-.4,13.343-1.5,20.467-2.4-3.531-5.74,3.16-12.818-3.7-17.1,3.315-1.862,4.081-5.963,2.081-13.249l-23.423,4.448a127.155,127.155,0,0,1,20.347-5.326c3.13-.577,4.5-1.743,4.389-5.115a107.2,107.2,0,0,1,.38-15.435c0.386-3.47-1.034-4.8-3.923-5.515-2.181-.537-5.25-0.352-6.377-1.742-3.346-4.124-7.614-3.6-12.32-3.7V492.68l5.518-1.643,0.042-1.148-8.582-1.839c3.14-4,4.142-13.7,1.9-21.245l-4.128,3.694c1.053-2.184,1.676-4.762,3.245-6.472,3.629-3.954,2.249-11.777-3.79-14.135,5.5,0.937,6.007-1.849,5.759-5.257-0.131-1.794-.166-3.605-0.448-5.376-0.262-1.646-.795-3.249-1.208-4.872l-3.624,3.606-1.173-.352c1.151-2.606,2.111-5.32,3.5-7.789,1.494-2.645,4.052-4.85,4.94-7.632,0.924-2.9.489-6.254,0.511-9.411q0.38-56.2.713-112.4c0.011-1.745,0-3.49,0-5.083-2.5,0-4.172-.11-5.821.019-7.214.563-7.461,0.831-7.473,8q-0.029,17.093-.005,34.187l-1.343.007V315.884c-4.12.849-6.263,2.267-6.289,6.1-0.218,32.137-.565,64.273-0.7,96.41-0.006,1.472,1.587,4.123,2.553,4.179,1.914,0.111,3.911-1.21,6.289-2.093,0,12.355-.087,25.666.065,38.974a41.35,41.35,0,0,0,1.467,9.292c0.208,0.844,1.721,1.367,2.635,2.038a12.8,12.8,0,0,0-4.224,10.727c0.223,4.986-.216,10.008.118,14.981,0.243,3.618,1.274,7.184,1.831,10.127-0.919,1.28-2.629,2.629-2.579,3.908,0.043,1.1,2.1,2.121,3.7,3.574-1.778,4.4-7.73,9.628-1.949,15.562-0.671,2.932-1.9,5.866-1.88,8.791,0.028,4.371,1.186,8.724,1.4,13.108,0.256,5.182-1.436,9.634-6.981,11.169-6.107,1.69-12.324,2.98-18.577,4.463v9.347h23.745l0.047,0.724-23.938,1.366c0,2.684.1,5-.024,7.3-0.2,3.674.882,5.508,5.093,5.128,4.574-.413,9.215-0.094,13.826-0.094l0.007,0.987h-18.1v14.422h23.629c-2.836-5.255,2.034-3.833,3.624-5.355l-2.159,3.426a33.749,33.749,0,0,0,5.405.41C212.209,604.842,212.311,602.618,212.471,601.418ZM119.408,567.6c0-3.78.1-8.757-.02-13.729-0.349-14.11-1.027-28.216-1.144-42.327-0.238-28.69-.01-57.384-0.309-86.073-0.431-41.31-1.163-82.616-1.761-123.924-0.183-12.636-.213-12.678-12.862-12.924a7.778,7.778,0,0,0-1.746.736L105.9,577.948l1.889,0.455ZM316.183,457.207l4.486-187.662c-8.717,2.224-9.361,2.857-9.756,9.932-0.511,9.131-1.07,18.265-1.3,27.4-0.438,17.613-.585,35.233-0.982,52.847-0.637,28.263-1.4,56.523-2.065,84.785C306.372,452.8,306.751,453.251,316.183,457.207ZM149.225,646.6l-0.39,1.212a22.512,22.512,0,0,0-3.612-.652c-4-.085-8.389-1.035-11.889.295-2.578.98-3.228,0.91-5.235-.654-1.777-1.385-5.292-2.584-6.886-1.725-3.119,1.681-4.62,2.616-5.333-1.813-0.081-.5-3.088-1.311-3.5-0.858-2.22,2.462-.916,7.78,2.322,8.6,7.965,2.023,15.981,4.37,24.111,5.112,16.628,1.518,33.337,2.25,50.028,2.906,5.223,0.206,10.506-.787,15.735-1.438,0.813-.1,1.487-1.313,2.226-2.012l-0.415-1.367c-2.654.177-5.425,0.906-7.929,0.374-2.485-.528-4.7-2.325-6.919-3.5-9.283,2.877-17.944-.051-26.942-5.288,1.492,5.831-1.582,8.323-4.573,8.472-2.573.128-5.288-2.577-7.94-4.03,0.686-1.061,1.135-2.589,2.109-3.085a47.5,47.5,0,0,1,6.8-2.317,6.352,6.352,0,0,1-1.177-1.33,2.741,2.741,0,0,1,.138-1.184c6.689,1.388,13.4,8.65,19.77-.82,6.9,1.549,13.824,7.547,18.92,4.172-1.7-3.167-3.217-7.049-5.7-10.167-1.123-1.413-4.164-1.847-6.313-1.795-6.57.158-13.137,1.2-19.689,1.077a139.347,139.347,0,0,1-19.037-2c-9-1.421-17.935-3.252-26.9-4.889a9.432,9.432,0,0,0-1.755.087l2.619,2.373-11.757,3.531c1.351,1.657,1.732,2.569,2.388,2.857,5.289,2.331,10.608,4.6,15.991,6.7,0.507,0.2,1.514-.887,2.289-1.376-0.687-.8-1.218-1.992-2.087-2.341-3.726-1.5-7.552-2.748-12.316-4.434,7.606-4.14,13.864-3.486,20.019.529l-11.477-1.953c6.227,7.387,14.841,4.468,21.853,7.98l-5.1.779-0.153,1.01Zm4.177,22.727c-1.526-4.606-9.312-6.793-14.185-5.772a23.31,23.31,0,0,1-10.443-.389c-5.8-1.552-11.373-3.937-17.151-6.012-1.909,9.621-1.715,10.167,6.761,11.872,10.423,2.1,20.848,4.777,31.391,5.526,13.581,0.965,27.39,4.816,40.916-.743a5.193,5.193,0,0,1,1.448.128c11.226-.438,22.563-0.064,33.644-1.574,11.1-1.512,22.063-4.505,32.861-7.629,6.49-1.877,12.548-5.246,18.8-7.944-2.9-1.634-5.533-3.108-7.682-2.584-3.447.841-6.485,3.227-9.863,4.529a17.481,17.481,0,0,1-6.906,1.176c-3.171-.148-5.564.094-8.545,2.154-2.957,2.044-7.823,2.53-11.456,1.78-1.387-.287-3.268-1.9-5.26-1.388-14.661,3.766-29.624,4.313-44.649,4.536C173.222,667.145,163.176,664.141,153.4,669.332Zm85.393-242.069c0.538-44.828,1.071-89.293,1.6-133.71-8.875-.574-9.158-0.3-9.2,7.386-0.015,2.991-.207,5.982-0.228,8.973q-0.375,54.4-.738,108.793C230.174,426.723,230.077,426.722,238.795,427.263ZM117.767,291.641l1.891,138.089c8.059-.685,8.094-0.731,8.014-6.826q-0.811-61.975-1.607-123.951C125.974,291.861,125.991,291.861,117.767,291.641ZM69,447.165c4.419-.232,6.068-2.012,5.949-5.774q-0.849-26.7-1.5-53.414Q72.22,335.55,71.115,283.121c-0.119-5.327-.246-5.434-6.048-5.549Zm-6.482,3.151c5.3-.443,4.533-3.708,4.468-6.375q-1.3-53.428-2.683-106.855-0.708-28.713-1.292-57.429c-0.055-2.509.186-5.206-4.792-4.771Zm177.9-164.19c-3.774-1.181-7.939-1.213-9.141-3.117-2.787-4.415-6.355-4.739-10.658-4.508-11.566.621-23.131,1.448-34.705,1.631-4.426.07-6.12,1.37-5.6,5.666a26.133,26.133,0,0,1,.01,2.988c0.031,6.239.093,6.319,6.536,5.926,16.321-1,32.634-2.12,48.963-2.962C240.622,291.5,241.467,289.331,240.421,286.126ZM131.671,210.28l-52.5-10.871c-1.843,7.1.435,13.617,6.008,14.9,13.9,3.2,27.924,5.9,41.934,8.613a3.718,3.718,0,0,0,3.1-1.913C130.97,217.482,131.229,213.845,131.671,210.28Zm204.666,49.5-1.916-.51c-0.6,2.149-1.674,4.285-1.738,6.45-0.806,27.109-1.44,54.223-2.171,81.334Q328.969,404.2,327.4,461.339a32.274,32.274,0,0,0,.836,5.649l1.928-.305Zm-293.65,5.526,5.345,194.4C52.544,455.5,47.109,270.826,42.686,265.306Zm171.086-13.937c5.356-.332,5.612-0.6,5.631-7.856,0.007-2.5.321-5.051-.084-7.483-0.363-2.184-.943-5.095-2.475-6.124-1.815-1.218-4.753-.945-7.2-0.939-0.917,0-1.831,1.073-2.747,1.656,2.782,2.991-.556,5.789-0.356,8.84,0.54,8.232.035,16.529,0.066,24.8,0.017,4.488-1.285,7.751-6.2,8.857-1.065.24-1.823,1.846-2.722,2.823,1.2,0.569,2.409,1.636,3.6,1.622,5.613-.067,11.223-0.43,16.866-0.689,0-6.727-.18-12.973.059-19.2C218.391,253.019,217.018,250.551,213.772,251.369ZM185.8,683.88l0.262,1.886q13.316-.692,26.631-1.39c3.806-.206,9.774.91,10.994-0.991,3.27-5.1,5.457-3.339,9.582-1.7,2.542,1.008,6.388-1.272,9.648-2.076l-0.244-1.23-8.873,1.169-0.025-.931,9.769-3.26-91.264,3.813-0.062,1.015,17.514,1.417-0.2,1.711-49.041-5.121,3.458,3.841,56.44,3.742c0.617-1.614.986-3.326,1.31-3.317,6.071,0.157,12.26-2.03,18.258-.27l-0.026,1.7H185.8ZM43.437,462.69l2.033,0.165a28.038,28.038,0,0,0,.585-4.484c-0.139-5.326-.518-10.646-0.655-15.972q-1.724-67.186-3.416-134.373c-0.354-13.317-.963-26.628-1.565-39.936a23.5,23.5,0,0,0-1.273-4.86l-1.452.383ZM95.195,621.519a5.533,5.533,0,0,0-.627,1.623c0.271,16.759.533,33.519,0.9,50.276,0.088,4,3.6,4.163,6.185,4.123,0.987-.016,2.758-2.9,2.763-4.487,0.042-14.276-.251-28.552-0.4-42.828C103.939,622.639,103.6,622.245,95.195,621.519Zm86.423-300.841-0.741.009V421.964c4.009,1.15,6.21.748,6.141-4.073-0.189-13.316-.065-26.637-0.1-39.956a19.212,19.212,0,0,0-.662-3.194l-4.635,6.189v-60.25ZM135.088,537.084c-4.384,1.227-7.941,2.015-11.318,3.285a4.427,4.427,0,0,0-2.45,3.177c-0.089,7.158.069,14.325,0.426,21.475,0.037,0.748,2.737,2.086,2.8,2.005,3.608-4.4,8.253-8.483,10.182-13.582C136.434,548.945,135.088,543.293,135.088,537.084Zm92.158-110.972H228.8V294.231l-1.557-.006V426.112Zm-55.785-138.9c-1.035-2.349-1.932-6.641-3.128-6.726-7.005-.5-15-3.253-19.739,5.127-0.976,1.726-2.612,4.139-2.053,5.394,0.634,1.423,3.317,2.38,5.244,2.685,3.73,0.592,7.556.573,11.341,0.829C170.583,295.03,170.583,295.037,171.461,287.216ZM87.947,544.427c4.718-3.159,9-5.973,13.2-8.887,0.759-.526,1.726-1.452,1.751-2.221,0.159-4.915.081-9.838,0.081-16.159-5.705,2.289-10.3,3.993-14.734,6.035-0.826.38-1.48,2.138-1.437,3.23C87.04,532.232,87.516,538.03,87.947,544.427ZM327.2,180.471l-2.885-5.164c1.861-.891,3.647-2.109,5.61-2.557a7.124,7.124,0,0,1,4.241.9c2.472,1.2,4.592.757,4.823-1.879,0.154-1.755-.971-4.493-2.39-5.344-3.553-2.131-6.569-.494-8.849,2.792-3.924,5.656-8.99,7.974-15.805,5.325-1.344-.522-2.95-0.371-4.435-0.53l-0.136,1.069,13.137,3.118c-3.885.114-7.572-.791-11.315-1.255-1.122-.139-3.4.914-3.419,1.491-0.081,1.981.5,5.7,1.008,5.727,4.266,0.242,8.353,4.191,12.9.591C321.989,182.925,324.842,181.784,327.2,180.471ZM47.055,621.4c1.044,2.291,1.3,4.075,2.321,4.865a60.359,60.359,0,0,0,9.887,6.533c4.984,2.466,10.24,4.389,15.408,6.474,4.2,1.694,8.439,3.284,13.543,5.262L87.3,631.578l-1.689.018-0.817,2.64c-4.135-1.268-8.06-3.3-12.041-3.423-3.062-.091-5.439-0.3-8.236-1.828C59.358,626.167,53.721,624.227,47.055,621.4Zm278.33-29.347L265.76,619.88c20.382-4.162,39.038-12.444,56.635-23.2C323.72,595.867,324.286,593.816,325.385,592.053ZM167.326,421.988l1.889-.006c0.492-26.93.026-53.858-.2-80.786l-1.693.006v80.785Zm-70.8-186.13c0-4.9.18-9.4-.116-13.863a4.719,4.719,0,0,0-2.446-3.48c-4.282-1.427-8.728-2.364-13.134-3.489C78.8,227.583,82.3,232.3,96.529,235.858ZM32.346,465.033l0.862,0.013a26.959,26.959,0,0,0,.291-3.321c-0.3-9.289-.651-18.577-0.962-27.866-0.669-19.923-1.388-39.846-1.962-59.772-0.488-16.959-.8-33.923-1.2-50.885-0.024-1-.2-1.99-0.239-2.988-0.554-13.256-1.215-26.51-1.6-39.772-0.235-8.113-.044-16.239-0.044-24.36l-1.6.047Zm39.175-188.2c0-3.783.194-6.544-.067-9.261-0.179-1.863-.438-4.65-1.622-5.315-3.89-2.185-8.217-3.59-12.688-5.422l-2.01,12.844Zm9.923-30.349c0,5.709-.043,10.6.048,15.483,0.013,0.707.627,1.984,1.032,2.013,4.63,0.328,9.274.473,13.916,0.617a0.971,0.971,0,0,0,.538-0.754c-0.73-3.545-.41-8.156-2.555-10.354C91.4,250.385,86.545,249.076,81.444,246.479Zm34.994-60.06c2.043,0.576,3.535,1.07,5.061,1.415,6.8,1.537,13.571,3.321,20.452,4.342,1.788,0.265,4.946-1.435,5.7-3.057,1.354-2.915-1.784-2.66-3.593-3.051-6.66-1.443-13.348-2.771-19.974-4.354C120.448,180.844,118.425,182.415,116.438,186.419ZM170.895,576.5c1.69-12.518,1.559-12.812-7.125-16.254l-11.992,14.518ZM344.129,142.62a13.371,13.371,0,0,0-1.971-.763c-7.795-1.6-15.586-3.22-23.4-4.716-1.873-.358-4.431-2.127-5.2,1.453-0.716,3.352,1.514,4.338,4.213,4.851,5.543,1.052,11.142,1.888,16.6,3.268C338.608,147.781,341.88,147.377,344.129,142.62Zm-36.816,19.254c11.169,4.578,17.5,2.517,21.753-6.783C318.4,150.695,314.718,151.8,307.314,161.874Zm48.9,71.808c-5.545-1.342-8.23.157-10.367,4.527-1.824,3.73-4.589,9.081-7.711,9.678-7.4,1.416-4.1,5.7-4.707,10.349C342.807,250.99,350.945,244.219,356.216,233.682ZM327.905,632.058l-0.922-1.721c-5.177,3.022-10.234,6.278-15.564,9-5.348,2.733-10.981,4.906-16.464,7.379-5.25,2.368-10.693,4.449-14.647,8.94C297.1,649.459,314.178,643.927,327.905,632.058ZM87.216,521.065c4.381-1.553,8.734-3.037,13.041-4.643,3.571-1.331,3.476-5.138,1.574-6.281-2.779-1.67-6.731-2-10.136-1.852-3.779.17-5.017,3.054-4.524,6.76A47.314,47.314,0,0,1,87.216,521.065Zm29.909-296.579c0,5.771-.076,11.225.071,16.672,0.026,0.956.835,2.507,1.549,2.68a5.036,5.036,0,0,0,3.432-.9c4.357-2.8,3.018-7.316,3.084-11.319C125.378,224.639,124.892,224.267,117.125,224.485Zm-71.34,40.779c1.531-13.1.608-14.96-8.281-18.37l-3.91,9.921Zm298.132-77.245c-1.448,2.241-3.178,3.7-3.269,5.259-0.506,8.609-.679,17.242-0.765,25.868-0.01,1,1.229,2,1.888,3,0.715-.957,2.037-1.9,2.052-2.873C343.976,209.355,343.917,199.429,343.917,188.019ZM116.123,283.611c-1.777-3.535,1.906-8.044-3.476-9.706-3.582-1.106-7.356-1.587-11-2.338C98.709,280.309,101.318,282.592,116.123,283.611ZM99.968,182.04v11.23a97.621,97.621,0,0,0,9.776,1.061c1.418,0.019,2.85-1.05,4.276-1.626-1-1.59-1.639-3.841-3.077-4.62-2.355-1.275-5.229-1.592-7.884-2.314l0.244-.855,10.057,1.51,0.218-1.475ZM332.182,520.008c3.478-5.669,3.607-33.09-.389-36.64C333.165,496.362,329.465,508.108,332.182,520.008ZM272.724,251.915c0.362-5.646-3.177-7.692-6.662-9.569-2.461-1.326-4.813-.635-5.121,2.378-0.376,3.677-.09,7.421-0.09,11.948ZM156.209,267.032a50.01,50.01,0,0,0-.045-6.117c-0.387-2.8-1.063-5.552-1.617-8.325-2.624,1.76-5.613,3.158-7.789,5.361-3.517,3.561-2.072,7.426,2.818,8.354C151.484,266.668,153.447,266.74,156.209,267.032ZM310.5,271.579l15.211-8.529-3.485-5.338-10.612.623ZM133.932,291.238l1.337-.973c-0.929-1.833-1.417-4.631-2.88-5.3a25.709,25.709,0,0,0-10.06-2.246c-1.544-.025-3.127,2.285-4.692,3.536,1.2,1.049,2.257,2.724,3.622,3.031C125.421,290.22,129.7,290.626,133.932,291.238Zm-38.161-40.5c1.113-9.035-2.24-11.688-13.4-10.6C81.822,244.518,87.619,249.1,95.771,250.735ZM100.1,176.4c-6.9-.136-13.7-5.966-18.907,3.034l14.815,3.3ZM258.675,647.9c4.561,4.562,7.828,1.484,11.328.058a31.065,31.065,0,0,1,8.593-2.424c4.379-.412,8.3-2.774,9.753-7.04Zm-0.092-374.473c-7.774,1.236-9.285,5.464-6.163,16.182,2.244-1.462,5.525-2.44,5.9-4.076C259.161,281.795,258.583,277.734,258.583,273.427ZM45.567,154.516c-5.207-9.6-12.382-1.69-18.624-3.57C29.809,157.977,29.907,157.88,45.567,154.516ZM17,233.106c-2.828,9.031,4.462,12,8.768,17.634V236.419L20.8,239.838Zm128.449,34.789c1.245,3-3.644,8.083,3.264,8.667,2.557,0.216,7.448,3.622,7.9-2.85C156.982,268.3,155.573,267.577,145.447,267.895ZM103.1,564.428c1.553-4.829-3.1-5.277-5.642-6.993-2.683-1.808-8.086.5-8.565,3.643-0.151.987,1.263,3.12,2.1,3.2C94.795,564.625,98.648,564.428,103.1,564.428ZM120.966,514.1l0.727,11.943c4.121-2.18,10.1-.659,9.372-6.6C130.449,514.416,125.122,515.609,120.966,514.1ZM233.958,199.838l15.386-2.4c-2.222-3.961-4.373-6.135-9.183-5.361C236.093,192.737,234.923,194.884,233.958,199.838Zm45.89,322.313-1.8.969c0.778,2.019,1.043,5.236,2.431,5.83,4.082,1.748,8.61,2.454,12.964,3.568l0.79-1.785C291.151,525.223,284.189,525.715,279.848,522.151ZM121.53,538.84c6.177,0.159,7.438-3.386,7.585-7.431,0.058-1.587-1.186-3.221-1.838-4.834-1.916,1.408-4.691,2.437-5.523,4.323C120.789,533.086,121.53,536.027,121.53,538.84Zm135.7-23.343c-1.264,6.816.573,8.275,10.306,8.53C268.634,517.414,267.779,516.685,257.233,515.5ZM131.438,201.436c-4.736-1.3-9.025-3.76-13.287-.173-0.77.648-1.438,2.772-1.027,3.252C119.872,207.728,128.968,205.972,131.438,201.436Zm17.186,357.9c11.051-8.431,15.3-18.58,10.9-25.6C163.519,545.608,151.956,550.662,148.624,559.335ZM81.952,269.7l0.193,1.908c4.587,1.062,9.156,2.211,13.775,3.108,0.871,0.169,1.937-.666,2.913-1.038-0.552-1.051-.865-2.715-1.7-3.042a31,31,0,0,0-8.557-2.306C86.419,268.153,84.163,269.2,81.952,269.7Zm254.859-49.189,1.2-26.8C334.761,196.274,333.7,215.282,336.811,220.512ZM12.711,492.473c5.416-6.656,2.8-12.816,2.442-18.677-0.038-.616-1.68-1.134-3.5-2.277ZM39.437,640.628l-1.526,1.26-19.436-21.77C22.758,628.938,31.28,634.6,39.437,640.628Zm-20-63.082a7.634,7.634,0,0,0-1.736.3c-0.7,1.027-2.189,2.66-1.93,3.019a39.113,39.113,0,0,0,5.654,6.24c0.5,0.448,2.02-.2,3.049-0.433a0.99,0.99,0,0,0,.28-0.882C22.918,582.879,21.032,580,19.437,577.546ZM260.488,241.072l12.853-5-0.083-1.247-12.77-2.735v8.977Zm-61.972,396.8c8.09,3.5,11.579-3.727,17.089-4.124H199.147l0.047,0.959,5.428,0.744-0.023.717ZM140.2,200.349l0.531-1.7-23.153-5.311-0.444,1.924Zm65.345,428.084,0.445,2.516c5.761-2.581,12.478.575,18.032-3.25l-0.23-1.548Zm13.927-133.2-0.1,1.451,7.576,6.223,0.87-7.674h-8.35ZM123.32,280.79a72.733,72.733,0,0,0,8.115,1.866c0.883,0.109,2.718-1.1,2.735-1.738,0.031-1.2-.642-3.141-1.554-3.532C128.984,275.833,125.542,275.937,123.32,280.79Zm9.205,315.557-0.791-2.951c-2.605.31-5.312,0.333-7.725,1.187-0.447.158,0.291,3.666,0.483,5.627ZM10.022,218.126l-2.91.759,4.843,15.5,1.927-.5ZM161.864,489.313l-0.9-1.491c-4.222.409-8.458,0.714-12.651,1.323-0.738.107-1.292,1.484-1.931,2.274,0.683,0.528,1.4,1.548,2.043,1.5a91.02,91.02,0,0,0,10.653-1.273C160.12,491.451,160.943,490.123,161.864,489.313ZM118.787,619.02l0.647-2.239a23.729,23.729,0,0,0-11.914-3.613,2.3,2.3,0,0,0-1.481,1.635,2.2,2.2,0,0,0,1.144,1.824C111.026,617.532,114.914,618.246,118.787,619.02Zm-8.651-38.356c-1.529,6.135,2.738,5.815,5.644,6.544,0.9,0.227,2.1-.714,3.167-1.121-0.512-1.111-.744-2.817-1.592-3.217A48.9,48.9,0,0,0,110.136,580.664ZM21.793,565.648c1.009-3.281,5.519-6.138,1.471-9.909-0.648-.6-2.97-0.436-3.707.248C15.232,560,20.028,562.469,21.793,565.648Zm246.076-59.818-0.967-.508-6.539,8.273,7.507,2.251V505.829ZM119.589,581.117l-1.57-8.519-7.109,4.933,0.534,1.4ZM339,373.017l-0.375.26c-0.878,3.589-2.117,7.137-2.532,10.778s0,7.355.048,11.039l1.721-.09ZM83.411,183.691l13.005,6.6C97.315,185.2,94.285,183.4,83.411,183.691ZM336.147,539.32c-0.63,4.3-1.437,7.962,2.739,10.348C342.953,544.572,342.84,544.106,336.147,539.32Zm-31.51,39.133,13.548-8.756C311.024,570.137,305.014,573.814,304.637,578.453ZM114.743,204.439l0.393-1.943-15-3.178-0.419,2.066ZM332.656,627.208l1.679,2.127,9.859-9.317-1.924-2.068ZM230.906,197.884l-3.035.741L230,207.4c0.971-.428,2.819-1,2.776-1.263C232.324,203.359,231.573,200.628,230.906,197.884ZM339.57,169.878l1.636,1.27c3.9-1.618,6.124-4.176,4.326-10.516ZM107.648,625.908l-0.562.006v17.268l0.562-.006V625.908ZM257.086,231.447l-1.09.8v9.656c4.439-1.339,2.826-4.659,2.915-7.1C258.951,233.713,257.733,232.569,257.086,231.447ZM268.2,425.22l-6.713,7.883,6.713,1.669V425.22ZM136.634,602.5v-6.827l-1.275-.8-5.775,6.216ZM240.8,201.792l-1.022-1.235-5.122,4.038,5.389,2.776Zm97.8,150.317-1.193.017v11.133l1.193-.012V352.109ZM170.332,271.168l-2.487-.843a54.357,54.357,0,0,0-2.038,5.837c-0.058.233,1.683,0.913,2.59,1.386ZM131.112,494.73l-0.287-1.372c-3.632-.29-7.482-1.384-10.063,2.192l0.465,1.812ZM102.981,195.057l-0.384,2.166,10.825,2.022,0.368-1.945ZM335.239,425.718l1.4,0.026V415.471l-1.4-.012v10.259ZM184,271.585c-1.424,1.806-2.815,2.806-2.788,3.765a3.465,3.465,0,0,0,2.547,2.3c1.1,0.043,2.24-1.142,3.363-1.794ZM107.877,588.306l-0.088,1.847c6.1,2.851,6.9,2.827,9.25-1.066Zm16.047-310.978-0.945-1.812c-1.627.188-4.127-.179-4.68,0.691-0.863,1.359-.408,3.556-0.542,5.945ZM94.913,618.968l9.218,2.052C102.074,615.883,99.745,615.258,94.913,618.968Zm250.4-479.113,0.194-1.395-12.646-2.3-0.215,1.29ZM152.6,279.437l-6.762-.622v6.3ZM335.706,448.57l-1.376-.113v8.972l1.376,0.009V448.57ZM357.5,558.885l2.51,0.657,1.4-6.331a11.59,11.59,0,0,0-2.165-.347C358.56,554.837,358.047,556.867,357.5,558.885Zm-91.029-57.757,0.325-1.6-11.39-3.364-0.539,2.008Zm80.368,64.545,4.516-5.9-7.886-1.853Zm-135-340.493,0.816-.106v-11.5l-0.816.057V225.18ZM113.832,602l-1.328-2.147c-1.717,1.3-3.451,2.573-5.092,3.959a15.64,15.64,0,0,0,1.15,1.756Zm138.844,21.2-0.754-2.119-7.32,3.071,0.64,1.6Zm-26.994,16.861,4.536-3.1-0.345-1.3-6.738-1.363Zm109.226-77.932-1.242-.482-4.4,5.686c2.6-.137,4.591.165,4.813-0.33C334.733,565.544,334.683,563.773,334.909,562.126ZM59.093,249.7c-2.323,4.3-.809,5.8,3.729,5.105ZM207.611,207.07l0.054,1.631h7.741l-0.05-1.994Zm-89.265,52.078h1.207v-7.337h-1.207v7.337Zm-47.475.959c-0.924-2.732-1.027-4.809-1.953-5.286-0.979-.5-2.743.515-4.164,0.869l-0.114,1.332Zm6.314,358.967-0.845,1.644,10.219,4.309,0.7-1.667Zm32.7-348.621,0.374-1.7-8.821-1.662-0.276,1.387Zm77.037,357.818-0.557,2.367,5.641,0.813,0.358-1.921ZM119.765,432.409l0.986,2.511,6.25-2.45-0.735-2.045ZM346.317,151.335l-1.7-.678-2.72,5.034,2.938,1.074Z"/>
        <path class="cls-1" d="M262.386,64.129v-10.5l-3.548-1.32-0.5,4.467a2.459,2.459,0,0,0-1.222.4c-3.786,4.172-8,6.863-14.028,4.692l4.107,1.621-0.193.69-10.584-1.924,1.33-3.426c-4.691-.358-9.54-0.094-14.033-1.236-5.332-1.354-8.507.953-11.188,4.7-2.98,4.169-1.015,8.9,3.807,10.434a5.3,5.3,0,0,1,2.879,2.942c2.988,8.343.752,16.7-.029,25.267-4.718-7.979-11.491-13.073-19.6-16.652a3.616,3.616,0,0,1-1.93-2.513c-0.153-7.43-.088-14.865-0.088-22.757H207.5V58.094h-8.086c-1.326-2.455-1.8-4.781-3.137-5.509-2.934-1.6-3.051-3.828-3.045-6.606q0.009-4.139.014-8.278H175.532l0,6.325c0,3.585.687,7.222-3.721,9.251-1.09.5-1.279,2.964-1.884,4.528l-22.28,1.548c8.311,1.319,8.3,1.319,8.2,10.472-0.062,5.486-.578,11.025,0,16.445,0.64,6-2.663,9.743-6.113,14.48-0.465-3.335.037-6.569-1.342-8.322-3.855-4.9-1.626-10.24-2.16-15.351-0.138-1.325.209-2.917-.408-3.937-2.777-4.588-6.184-8.263-12.5-5.035V60.821L123.043,62.3a43.6,43.6,0,0,1,.5,6.539c-0.494,6.794-1.465,13.561-1.773,20.36-0.324,7.15-.09,14.326-0.11,21.49-0.012,4.331-.134,8.664-0.028,12.991,0.057,2.333.491,4.657,0.754,6.986l1.191-.244a38.052,38.052,0,0,1-1.112-6.253c-0.163-11.661-.174-23.324-0.2-34.987,0-.98-0.071-2.591.427-2.841,4.238-2.127,2.182-5.638,2.162-8.712-0.008-1.161.146-2.324,0.227-3.486,1.748,1.068,2.94,2.256,3.094,3.565,0.77,6.545,1.741,13.121,1.757,19.689,0.026,11.2-.716,22.4-0.893,33.6-0.048,3.038.049,6.487,1.43,9.009,1.108,2.024,4.257,2.931,7.1,4.708l-8.605,2.352c5.871-.345,11.2-0.795,17.039,1.441,7.27,2.785,8.841,3.849,7.984,11.868-0.685,6.412,1.435,10.461,7.689,12.605,14.754,5.058,29.683,5.761,44.506.216,7.294-2.729,9.546-6.643,9.1-14.382a18.36,18.36,0,0,1,.234-4.973c0.2-.918,1.237-1.652,1.9-2.468l1.754,2.981c7.37-6.794,14.873-13.757,26.417-9.4,0.525,0.2,2.757-1.879,2.769-2.913,0.14-11.483.434-23-.226-34.447-0.417-7.238,1.863-12.534,7.468-16.717l-6.4,4.645C247.171,86.808,248,83.7,252.64,81.888a6.782,6.782,0,0,1,3.332-.585c1.534,0.247,3.735.609,4.258,1.634,0.5,0.974-.691,2.91-1.343,4.33a7.9,7.9,0,0,1-1.693,1.81c2.883-1.9,4.3-1.029,4.327,2.351,0.024,3.138.005,6.276,0.005,9.415l0.968,0.005V82.138c1.382,0.128,2.033.2,2.686,0.247,4.536,0.307,9.346,4.4,13.475-.967l2.108,1.849c0.51-4.539,3.318-4.44,6.418-3.125l3.411-8.393Zm-117.051,15.4a15.17,15.17,0,0,1,.041,3.35c-0.039.778,0.486,2.922-.354,3.962-1.118,1.384-3.3,1.909-5.026,2.8-0.37-1.706-1.19-3.468-.988-5.1a15.886,15.886,0,0,1,2.167-5.278,28.671,28.671,0,0,1,2.608-3.5A35.753,35.753,0,0,1,145.335,79.529Zm-18.056-9.207c5.38,1.025,11.109-5.426,15.838,2.435C131.844,75.778,130.014,75.539,127.279,70.321Zm7.336,13.638c0.967,0.682,2.5,1.235,2.694,2.094a7.284,7.284,0,0,1-.823,4.068c-0.152.361-2.085,0.469-2.157,0.285a11.354,11.354,0,0,1-.971-4.057C133.362,85.551,134.127,84.756,134.615,83.96Zm-1.222,28.4c0.682-5.757-1.382-11.577,2.313-16.348C138.779,104.5,137.874,109.464,133.393,112.363Zm1.264-28.472c0.014-.024.031-0.048,0.044-0.072q-2.011-1.49-4.043-2.967c0.869-1.185,1.578-3.171,2.643-3.386,2.069-.417,4.338.161,6.524,0.327-0.4,1.458-.42,3.235-1.306,4.281C137.684,83.062,136,83.33,134.658,83.89Zm4.661,23.9c-3.214-10.189-1.394-13.141,8.269-12.961C149.133,104.031,148.873,104.426,139.318,107.792ZM170.872,81.92c-0.107,1.542-3.216,2.877-4.941,4.307l-1.277-.862V59.218h6.452C171.107,66.855,171.391,74.415,170.872,81.92Zm60.359,27.562-1.723.03c-0.741-10.674-.4-21.37-0.358-32.061l2.082-.038v32.068Zm1.605-11.266a2.249,2.249,0,0,1,.883-1.605c3.252,0.283,6.594.379,9.676,1.31,1.085,0.328,2.12,2.786,2.155,4.3q0.261,11.214-.129,22.439c-0.063,1.83-1.208,3.623-1.856,5.433l-3.9,2.452c0-3.242.431-5.747-.1-8.028-0.8-3.416-1.426-7.452-3.627-9.841C231.228,109.563,232.822,103.861,232.837,98.215Zm10.458,45.092a66.932,66.932,0,0,1-8.224-1.84l8.523-11.255c0.884,3.8,1.862,7.576,2.5,11.412C246.168,142.055,244.214,143.394,243.294,143.308Zm3.785-20.341-0.529,0v-22.9l0.529,0v22.9ZM247.1,94.883l-0.442.146-0.746-3.735c-0.233,1.538-.468,3.073-0.795,5.21L234.373,94.43c3.559-5.023,5.977-9.93,12.728-9.2v9.648ZM260.99,63.8L254,62.843c1.686-2.293,3.029-4.121,4.364-5.939h2.624v6.9Z"/>
        <path class="cls-1" d="M25.379,98.025c2.5-2.114,3.91-4.414,2.768-7.99-0.847-2.652.142-4.876,3.447-5.149,0.811,0.9,1.5,2.407,2.452,2.6,7.22,1.444,14.509,2.536,21.738,3.936,3.792,0.734,6.141-.828,8.348-4.179-2.854-.669-5.285-1.1-7.627-1.823-2.887-.889-5.7-2.019-8.546-3.045,0.623,0.181,1.534.723,1.827,0.49,5.881-4.682,12.315-1.81,18.562-1.476,5.889,0.315,7.632,2.048,7.64,7.867,0.016,11.966,0,23.932,0,36.353-6.139-8.747,1.792-18.936-2.159-27.578L71.78,97.84c-0.808,3.875-2.22,7.735-2.311,11.626-0.3,12.646-.111,25.3-0.111,37.955l-1.33.027v-41.19c-7.5,2.005-7.9,7.072-8.212,12.324a13.029,13.029,0,0,0-.3-2.355c-0.6-1.914-1.073-5.253-2.016-5.4a15.573,15.573,0,0,0-7.932,1.094,22.434,22.434,0,0,0-6.427,4.558c-2.488,2.3-5,2.595-8.207,1.764-1.707-.442-3.769.483-5.926,0.833,0.048-3.645-2.689-3.511-5.735-2.834,0.274-4.86-1.5-10.114,4.085-13.713C29.013,101.458,29.441,98.079,25.379,98.025Zm7.584-4.857c-2.162,1.682-4.272,3.383-2.675,6.913A40.189,40.189,0,0,0,35.1,96.149c0.576-.632.347-2,0.484-3.031l-2.556.019,3.33-3.543-7.32-1.586C29.438,91.058,27.543,94.944,32.963,93.168ZM27.549,105.94c12.126,2.637,14.886,1.841,19.5-5.353C38.522,94.984,37.861,96.007,27.549,105.94Z"/>
        <path class="cls-1" d="M101.733,134.4l-4.3-15.418-1.092.082c0,2.379.1,4.765-.032,7.137-0.107,1.916-.5,3.817-0.76,5.724l-1.222-.252V97.557l1.215-.016V111.46l1.36,0.11,4.975-30.629,0.622-.089a20.471,20.471,0,0,1,.413,2.848c0.086,11.309-.014,22.622.281,33.925,0.093,3.566,1.6,7.094,1.708,10.663C104.954,129.951,103.222,131.67,101.733,134.4Z"/>
        <path class="cls-1" d="M286.918,92.131v44.581l-2.111-.06C283.883,121.745,286.474,106.96,286.918,92.131Z"/>
        <path class="cls-1" d="M337.636,109.711c0.825,1.286,2.275,2.531,2.362,3.864a98.607,98.607,0,0,1-.235,13.791V112.246c-4.227.749-7.59,1.4-10.972,1.929-3.487.547-6.883,0.82-9.059-2.966-0.338-.588-1.638-0.623-2.935-1.065l-0.314-3.484c3.707-.966,7.176-1.913,10.667-2.771,5.539-1.362,8.316.236,10.595,6-5.476-6.446-11.921-3.2-19.557-2.4,2.813,2.32,4.613,5.016,6.244,4.917C328.871,112.144,333.239,110.693,337.636,109.711Z"/>
        <path class="cls-1" d="M5.013,129.624l-0.749,4.219-1.244-.232L5.1,123.028a41.324,41.324,0,0,1,6.051.917,23.7,23.7,0,0,1,4.3,2.316c-1.224,1.121-2.284,2.813-3.713,3.224C9.791,130.044,7.566,129.624,5.013,129.624Z"/>
        <path class="cls-1" d="M346.567,101.6l-0.839-1.044,0.237-.26,6.948,7.457c0.457,0.152-.418-0.394-1.253-0.337-0.708.048-1.315,0.957-2.059,1.2-3.2,1.032-6.453,1-7.965-2.371C341.349,105.6,344.65,103.355,346.567,101.6Z"/>
        <path class="cls-1" d="M363.986,128.778c0.245-5.376-2.363-7.236-7.529-6.4a6.753,6.753,0,0,1-4.239-.834,3.25,3.25,0,0,1-.861-3.083c1.242-2.422,9.154-2.381,10.112.14,1.234,3.247,1.717,6.778,2.525,10.188Z"/>
        <path class="cls-1" d="M244.474,164.041c-0.559-1.4-1.529-2.79-1.59-4.215-0.117-2.734.282-5.49,0.568-9.747l-10.123,8.481c2.908-3.127,5.719-6.356,8.792-9.312a4.548,4.548,0,0,1,3.625-.859,46.165,46.165,0,0,1,11.916,4.342l-13.188-3.337v14.647Z"/>
        <path class="cls-1" d="M103.059,73.471c-4.143-1.931-9.208,1-10.614-5.031l10.614-2.711v7.742Z"/>
        <path class="cls-1" d="M14.669,108.91l7.092,2.476c0,2.4,0,4.03,0,5.664l-12.57-3.524Z"/>
        <path class="cls-1" d="M64.406,77.228a44.059,44.059,0,0,1,6.755-2.522,6.018,6.018,0,0,1,3.975,1.136c0.709,0.461,1.385,2.431,1.119,2.673-0.977.89-2.424,1.963-3.567,1.834a67.146,67.146,0,0,1-8.43-1.954Z"/>
        <path class="cls-1" d="M337.773,93.751c-3.012,1.153-5.01,2.518-6.994,2.5-1.755-.018-3.527-1.527-5.181-2.555-0.131-.082.453-2.143,0.952-2.264a18.3,18.3,0,0,1,6.122-.674C333.979,90.9,335.167,92.157,337.773,93.751Z"/>
        <path class="cls-1" d="M279.438,129.233v-29.7l0.655,0v29.585Z"/>
        <path class="cls-1" d="M167.387,693.011h34.037l0.006,0.634H167.544Z"/>
        <path class="cls-1" d="M251.625,141.033c4.325-5.546,11.76-9.5,8.207-19.734C265.3,132.317,257.193,136.093,251.625,141.033Z"/>
        <path class="cls-1" d="M60.741,160.484V139.272l0.335,0v21.1Z"/>
      </g>
      <g>
        <path class="cls-2" d="M7.461,216.168c-1.068,3.069,0,5.972.374,9.016,1.22,9.884,5.179,18.841,8.645,27.977,2.108,5.556,1.264,11.42,1.261,17.007-0.01,17.019,1.086,34,1.439,51,0.4,19.5,1.276,39,1.92,58.5,0.633,19.167,1.391,38.331,1.875,57.5q0.379,15,1.011,30c0.269,6.262,4.275,10.469,8.475,14.5"/>
        <path class="cls-2" d="M58.461,227.668c3.371,3.363,7.265,6.172,9.118,10.954,1,2.59,3.041,4.865,4.917,7.015,4.379,5.02,3.249,11.243,3.916,17.036,0.919,7.978-.515,15.968-0.042,24,1.1,18.641.584,37.344,1.293,55.987,0.577,15.177.076,30.366,0.931,45.5,0.922,16.342.5,32.677,0.974,49,0.185,6.352,1.561,12.67,2.394,19"/>
        <path class="cls-2" d="M70.461,565.168a33.982,33.982,0,0,1-.011,16.5c-0.862,3.311-1.437,6.614-.489,10"/>
        <path class="cls-2" d="M36.461,236.168c-2.874,3.684-3.637,8.295-5.417,12.315-3.417,7.72,2.023,13.7,1.649,20.7-0.559,10.452.525,20.986,0.75,31.488,0.55,25.67,1.746,51.319,2.194,77,0.189,10.824.347,21.686,0.951,32.5,0.615,11.006.626,22,.928,33.006a245.816,245.816,0,0,0,5.446,46.5"/>
        <path class="cls-2" d="M322.461,244.668a34.281,34.281,0,0,1,6.1,12.975c0.961,3.795,1.191,7.2-1.085,10.535a6.994,6.994,0,0,0-1.05,3.99q-0.414,25.751-.975,51.5c-0.452,20-.777,40.008-1.543,60-0.92,24-1.9,47.986-1.9,72,0,5.109-2.6,8.821-5.545,12.5"/>
        <path class="cls-2" d="M41.461,265.168c0.947,23.992,1.753,47.985,2.132,72,0.152,9.658.726,19.325,0.909,29,0.521,27.5,1.9,54.984,2.081,82.5,0.032,4.808.051,9.827,1.878,14.5"/>
        <path class="cls-2" d="M184.461,1V59.668"/>
        <path class="cls-2" d="M64.461,276.168c-0.633,23.014.85,46,1.141,69,0.2,15.5.309,31.022,1.026,46.494,0.858,18.5.437,37.018,1.351,55.507a10.788,10.788,0,0,0,.483,2"/>
        <path class="cls-2" d="M127.461,292.168c-6.5-1.333-12.961-2.941-19.519-3.869-2.728-.386-5.342-1.952-8.469-0.983-0.081,15.194.152,30.527,0.979,45.852,0.063,1.163,0,2.333.01,3.5q0.5,44,1.017,88a45.728,45.728,0,0,0,.492,5.5c1.54,11.475-5.917,18.932-12.011,27-0.5.665-1,1.333-1.5,2"/>
        <path class="cls-2" d="M286.461,219.668c0.368,7.677-.318,15.076-6.035,20.966a3.609,3.609,0,0,0-.967,3.035c0.51,12.208-1.581,24.348-1.325,36.5,0.264,12.5.7,25.029,0.2,37.5-0.973,24.332-.62,48.679-1.479,73-0.236,6.672-.679,13.367-0.273,20,0.528,8.618-1.665,16.962-1.7,25.507-0.024,5.172-4.135,8.723-6.413,13"/>
        <path class="cls-2" d="M193.961,306.918c-4.623,2.506-9.334.149-14,.213-8.513.117-10.914,2.011-11.422,10.541-0.321,5.385-.862,10.883,3.342,15.568,2.643,2.946,3.142,6.884,3.131,10.927-0.089,32.166-.039,64.333-0.07,96.5,0,2.789.177,5.491,1.52,8"/>
        <path class="cls-2" d="M230.461,294.168c-0.167,35.667-.265,71.334-0.538,107-0.091,11.835-.658,23.666-0.93,35.5-0.04,1.754-.778,3.856,1.468,5"/>
        <path class="cls-2" d="M352.961,226.168c7.039,5.707,7.318,7.3,4.062,16.023a81.461,81.461,0,0,1-4.585,10.964c-3.19,5.793-3.964,11.92-4.11,18.51-0.483,21.841-1.557,43.669-2.338,65.5a19.548,19.548,0,0,0,1.289,8.069c2.273,5.863,1.193,12.26,1.122,18.429-0.094,8.169-.641,16.333-0.93,24.5-0.2,5.6.012,11.258-2.519,16.5a3.808,3.808,0,0,0-.027,3.014c2.871,9.263,1.855,18.442-1.061,27.459-0.518,1.6-1.081,2.874-.426,4.539,3.623,9.218,2.211,18.449-.61,27.451-1.122,3.582-2.471,6.609.053,10.1a6.969,6.969,0,0,1,1.01,4.437c-0.86,8.483,1.729,16.258,4.568,24.007"/>
        <path class="cls-2" d="M353.961,541.168c-1.789,5.721-4.481,10.514-10.978,12.09-1.646.4-3.022,1.91-4.522,2.91"/>
        <path class="cls-2" d="M311.461,246.668c-6.627,5.279-5.236,12.969-5.987,20-0.462,4.326.294,8.636,0.166,13-0.475,16.16-1.114,32.318-1.344,48.492-0.412,29-1.628,57.991-1.874,87-0.092,10.835-.5,21.673-1.005,32.5-0.322,6.955-3.2,13.357-4.956,20"/>
        <path class="cls-2" d="M161.461,268.168c-8.708.217-17.241-2.6-26.512-1.175,4.485,4.312,5.33,9.772,5.06,15.677-0.294,6.427,2.186,13.346-3.971,18.588-0.576.49-.077,2.243-0.077,3.41,0,15.5-.406,31.013.1,46.5,0.666,20.339-.062,40.676.472,61,0.311,11.841.4,23.716,1.918,35.5,0.516,4.018,3.794,6.142,6.009,9"/>
        <path class="cls-2" d="M222.961,297.668c0,9.333.043,18.667-.008,28-0.143,25.833.027,51.676-.689,77.495-0.24,8.644.63,17.362-1.088,26.048-0.659,3.33,2.932,5.96,5.285,8.457"/>
        <path class="cls-2" d="M188.961,309.168c0.94,18.16.326,36.333,0.5,54.5,0.01,1-.4,2.281.064,2.957,4.693,6.777,2.544,14.245,2.475,21.544-0.131,13.832-.2,27.669.053,41.5,0.083,4.561-.734,8.3-4.591,11"/>
        <path class="cls-2" d="M258.461,265.668c1.17,4.463.424,9,.46,13.5,0.253,31.172-1.133,62.323-1.216,93.5-0.038,14.142-.017,28.369-0.98,42.485-0.51,7.479.259,15.2-2.264,22.516"/>
        <path class="cls-2" d="M239.461,272.168c7.1,6.468,7.146,14.794,6.56,23.5-1.062,15.812-.258,31.666-0.6,47.495-0.526,24-1.064,47.995-1,72,0,1.345,1.123,3.711-1.954,3.5"/>
        <path class="cls-2" d="M166.461,331.668c-3.442,3.073-4.585,6.9-4.561,11.5,0.129,24.833.178,49.667-.033,74.5-0.044,5.236.666,9.81,4.594,13.5"/>
        <path class="cls-2" d="M5.461,143.668c0.269,4.5.652,8.807,2.852,13.076,2.933,5.691,4.772,11.941,7.173,17.914a10.758,10.758,0,0,0,3.475,5.01"/>
        <path class="cls-2" d="M50.461,239.168a106.522,106.522,0,0,1,1.046,23.5,6.533,6.533,0,0,1-1.572,3.976,3.159,3.159,0,0,0-.378,3.435c4.728,5.231,2.706,11.752,3.214,17.6,0.777,8.939.385,17.985,0.572,26.986,0.513,24.666,1.333,49.328,1.885,73.992,0.287,12.829.136,25.688,0.841,38.5,0.413,7.514.983,14.95,0.576,22.516-0.262,4.87,2.865,9.1,5.815,12.99"/>
        <path class="cls-2" d="M190.961,674.668c-0.034,3.722-3.273,2.883-5,2.871-9.5-.064-19-0.658-28.5-0.809-3.494-.055-6.993.7-10.5,0.918-6.812.43-13.344-1.61-19.983-2.59-5.048-.745-9.925-1.8-15.229.977,3.04,7.573-3.046,13.558-4.254,20.638-0.478,2.8-2.187,3.264-4.533,2.994"/>
        <path class="cls-2" d="M12.961,528.668a23.307,23.307,0,0,0-1.046,20.018,6.1,6.1,0,0,1,.024,2.979c-1.186,7.365,1.657,13.286,6.524,18.5,0.482,0.517.98,1.418,1.5,1.44,8.383,0.364,11.719,8,17.449,12.129,6.009,4.334,8.843,10.751,10.048,17.933"/>
        <path class="cls-2" d="M102.461,507.668c1.9,1.844.732,4.365,1.381,6.536,0.706,2.36-1.733,2.662-3.361,3.5-12.582,6.5-26.152,4.883-39.52,4.961"/>
        <path class="cls-2" d="M250.961,674.168c-3.021-3.675-7-3.35-11-2.481a206.378,206.378,0,0,1-47.5,4.961,5.486,5.486,0,0,1-1.5-.48"/>
        <path class="cls-2" d="M313.461,547.168a23.447,23.447,0,0,0,14.994,6.1c7.983,0.453,10.134,2.684,12.012,10.394,1.215,4.989.977,10.317,3.494,15"/>
        <path class="cls-2" d="M292.461,626.168c-6.873.212-13,3.356-19.474,5.1-6.868,1.847-13.84,3.176-20.624,5.632-6.522,2.361-12.521,5.075-16.773,10.374-2.743,3.419-5.989,3.485-9.618,3.979-3.677.5-6.748,1.072-9.143-3.006-1.715-2.921-5.325-2.124-7.819-.971a20.556,20.556,0,0,1-15.182,1.39c-3.741-1-8.826-2.43-13.437-.136-1.737.864-4.264,0.14-6.43,0.14"/>
        <path class="cls-2" d="M343.461,602.668a78.327,78.327,0,0,1,5.455,6.53,13.213,13.213,0,0,1-.946,15.477c-7.284,8.85-17.007,14.765-26.086,21.387-5.583,4.072-11.6,7.966-18,10.39-8.14,3.079-15.421,8.084-23.92,10.208-3.811.952-7.209,2.949-10.936,4.194-4.964,1.658-10.128,2.225-15.071,3.785a8.653,8.653,0,0,0-3.491,2.029"/>
        <path class="cls-2" d="M341.961,586.668c-10.144-3.055-19.286-1.639-27.578,5.408-2.84,2.414-6.565,3.8-9.928,5.58a34.718,34.718,0,0,0-10.118,7.4c-4.088,4.548-10.217,5.877-15.894,7.552-4.491,1.325-8.481,3.748-12.932,5.212-5.012,1.648-6.168,4.51-5.532,9.845,0.22,1.847.649,3.669,0.982,5.5"/>
        <path class="cls-2" d="M365.461,555.668c1.029,4.8.6,9.687,0.368,14.494-0.145,3-.371,6-0.349,9.006,0.13,17.519-2.314,34.961-1.571,52.5,0.072,1.705.1,3.646-1.448,5"/>
        <path class="cls-2" d="M208.961,450.668l19,0.5"/>
        <path class="cls-2" d="M255.461,535.168c-8.057-1.469-15.134-4.532-19.5-12"/>
        <path class="cls-2" d="M353.461,148.418c9.478,1.374,9.6,1.414,6.454,10.734a96.8,96.8,0,0,1-6.339,15.077c-1.242,2.307-2.47,4.935-.288,8.059,1.4,2,1.41,5.128,1.184,7.88-0.861,10.5-1.736,21-2.472,31.5-0.194,2.768-1.132,4.276-4,5.121-2.508.739-4.774,2.434-7.022,3.9-4.919,3.2-10.085,4.946-16.024,3.516a15.3,15.3,0,0,0-3.491-.038"/>
        <path class="cls-2" d="M177.961,260.668c-3.917,15.166-2.1,30.643-2.5,46"/>
        <path class="cls-2" d="M157.461,663.168a30.476,30.476,0,0,0-18.956-2.78c-4.7.937-8.473-.991-12.507-1.887-5.153-1.145-10.03-3.519-15.039-5.326-3.64-1.313-3.881-2.691-2.083-6.052a12.2,12.2,0,0,0,1.087-9.955c-0.662-1.905-1.016-3.789.5-5.5"/>
        <path class="cls-2" d="M215.461,656.168c-3.829,4.427-8.618,5.677-14.469,6.294-7.193.758-14.384,1.555-21.518,1.034-5.829-.425-11.615-1.568-17.513-1.334-2,.079-4.25-0.387-4.75,2.506"/>
        <path class="cls-2" d="M232.961,679.168c5.806,0.115,11.035-3.7,17.283-2.251-2.192,5.6-7.812,6.292-12.318,7.043A286.821,286.821,0,0,1,202.454,688a398.682,398.682,0,0,1-48.514-1.083c-6.926-.566-13.68-1.611-20.489-2.69a11.549,11.549,0,0,0-5.5.4c-4.016,1.342-7.948,1.293-11.487-1.461"/>
        <path class="cls-2" d="M251.961,470.668c-2.409,12.555-6.146,24.827-8,37.5"/>
        <path class="cls-2" d="M146.961,532.668a20.678,20.678,0,0,1-1.4,12.54c-2.992,7.33-5.4,14.92-5.543,22.961-0.037,2.137-1.841,2.939-2.54,4.505-0.914,2.046-2.758,3.622-2.514,6.912,3.743,3.128,7.07,8.95,14.5,6.832"/>
        <path class="cls-2" d="M103.461,536.168a37.918,37.918,0,0,0-11.922,7.584c-2.167,2.03-4.381,2.467-7.079,2.441-7.5-.072-15-0.025-22.5-0.025"/>
        <path class="cls-2" d="M351.461,178.668c-13.244,1.8-22.57,9.479-30,20"/>
        <path class="cls-2" d="M338.461,191.168c1.547,2.515,1.384,5.409.9,7.981-1.32,6.995-.75,14.012-0.883,21.019-0.077,4.027.2,8.074-1.016,12"/>
        <path class="cls-2" d="M122.461,84.668c-1.138,12.821-.115,25.671-0.553,38.5a13.906,13.906,0,0,0,2.053,8.5"/>
        <path class="cls-2" d="M116.961,460.668c4.634-1.071,9.337-.234,14-0.5"/>
        <path class="cls-2" d="M179.461,547.168a39.376,39.376,0,0,1-11.486,5.059,17.651,17.651,0,0,0-10.544,7.42c-4.118,5.852-9.232,10.209-16.97,10.021"/>
        <path class="cls-2" d="M312.961,528.168a60.445,60.445,0,0,0-7,.041c-8.275.97-15.908-1.078-22.951-5.135-2.968-1.71-5.9-1.929-9.054-1.906"/>
        <path class="cls-2" d="M202.961,693.668h-37"/>
        <path class="cls-2" d="M127.461,225.668c-6.343-2.936-13.3-3.234-20.028-4.327-2.852-.463-5.661-2.1-8.972-0.879,0,12.538-.117,25.374.051,38.205,0.079,6.023.4,5.758,6.911,7.633,2.519,0.726,5.677.27,7.538,2.868"/>
        <path class="cls-2" d="M62.461,550.668a84.42,84.42,0,0,0-3.487,21c-0.187,3.266-.509,6.454,3.959,7.608,2.393,0.618,4.217,3.007,7.028,2.891"/>
        <path class="cls-2" d="M44.961,645.668a9.847,9.847,0,0,0-5.561-9.376c-7.862-3.883-11.819-11.583-17.924-17.14-1.9-1.73-3.539-3.82-6.514-3.484"/>
        <path class="cls-2" d="M2.961,582.668a63.258,63.258,0,0,0,1.757,16.565c0.907,3.387,3.425,5.215,4.977,7.794,4.668,7.754,5.923,17.315,13.187,23.731,4.862,4.295,9.018,9.407,14.591,12.891,4.384,2.741,9.91,2.878,14.084,6.405A40.179,40.179,0,0,0,58,654.106c4.037,2.237,7.909,6.221,13.031,1.635a3.583,3.583,0,0,1,5.317,1c1.646,2.816,4.328,2.2,6.617,2.931"/>
        <path class="cls-2" d="M340.461,473.168c-9.294,3.07-19.057,4.079-28.51,6.461a21.931,21.931,0,0,0-5.99,2.039"/>
        <path class="cls-2" d="M226.961,70.168c-3.615,8.269-1.6,16.987-1.93,25.5-0.234,6.14-1.14,11.863-5.57,16.5"/>
        <path class="cls-2" d="M102.961,79.668c-0.672,15.826-4.691,31.573-1.054,47.512,0.4,1.743.054,3.654,0.054,5.488"/>
        <path class="cls-2" d="M30.461,158.168c5.852,0.049,11.474-1.2,16.969-2.618-2.509-7.628-8.043-7.2-13.972-5.9-2.648.582-5.333,1-8.084,1.5,0.482,2.944,3.428,4.11,4.588,6.512"/>
        <path class="cls-2" d="M244.461,532.668c-2.523,17.931-1.948,35.977-2.014,54-0.018,4.891.657,9.885-1.736,14.5"/>
        <path class="cls-2" d="M23.461,469.168c-4.182-.428-8.078.865-12.411,1.846-0.478,7.709,1.046,15.156,1.411,22.654"/>
        <path class="cls-2" d="M226.961,626.168c-1.494-1.9-3.337-.551-5-0.47a83.425,83.425,0,0,0-24.018,4.424c-1.849.655-1.575,2.729-2.984,3.546"/>
        <path class="cls-2" d="M106.461,618.668c-2.673-2.506-6.213-2.659-9.431-3.585-5.677,6.345-3.4,13.994-3.459,21.086-0.084,11,.644,22,0.86,33,0.153,7.779.03,7.781,7.53,10"/>
        <path class="cls-2" d="M339.461,346.168c-7.306,4.673-4.826,11.841-3.768,17.96,1.023,5.918-.016,11.465-0.88,17.017-1.127,7.24-1.88,14.14,2.648,20.523"/>
        <path class="cls-2" d="M279.961,97.668l-0.5,33"/>
        <path class="cls-2" d="M314.961,135.168c3.87,2.238,8.57.99,12.522,2.956a1.653,1.653,0,0,0,1.451-.479c4.361-5.13,9.388-1.085,14.013-.768,1.844,0.127,4.714-.974,5.984,1.856-0.815,6.5-4.736,10.632-10.451,13.474a5.28,5.28,0,0,1-5.009-.06c-6.964-3.454-14.459-3.845-22.22-4.408-1.993-4.094-1.557-9.242,2.35-12.4,1.669-1.347.957-2.466,1.359-3.674"/>
        <path class="cls-2" d="M63.461,612.168c5.962-.068,11.748.3,17.557,2.338,5.235,1.833,6.6,6.01,8.373,10.192,0.189,0.445-.6,1.3-0.93,1.97"/>
        <path class="cls-2" d="M73.461,94.668c4.567,5.745,1.867,12.364,1.769,18.5-0.075,4.711-.371,9.182,1.731,13.5"/>
        <path class="cls-2" d="M230.461,495.668a26.675,26.675,0,0,0-9-2.053c-2.743-.158-5.479.65-4.326,3.481,2.436,5.981,3.044,12.927,8.323,17.572"/>
        <path class="cls-2" d="M311.461,148.668c-1.917,3.961-4.326,7.662-5.562,11.982-1.1,3.845-.048,6.975,3.572,7.984,6.49,1.808,12.69,2.966,17.607-3.882,2.721-3.789,6.237-6.979,12.014-3.823,1.645,0.9,4.869-1.094,7.369-1.76"/>
        <path class="cls-2" d="M287.961,90.668c-0.939,7.975-.712,16-1.04,24-0.315,7.674-.96,15.335-1.46,23"/>
        <path class="cls-2" d="M241.961,570.668c-6.626-.424-12.587,2.757-19,3.509-4,.47-7.9,1.8-12,1.491"/>
        <path class="cls-2" d="M301.961,553.168c-2.291,6.986-4.445,13.967-3.054,21.51a22.925,22.925,0,0,1,.019,5.987c-0.2,2.337-1.083,4.218-3.966,4"/>
        <path class="cls-2" d="M144.461,463.668c-7.611,6.793-10.486,14.477-6.158,24.568,2.372,5.53,1.98,11.911,2.658,17.932"/>
        <path class="cls-2" d="M208.961,511.668c-0.371,5.853-5.334,4.566-8.514,4.836-6.453.548-12.986,0.164-19.486,0.164"/>
        <path class="cls-2" d="M318.461,557.668c-0.056,1.833.948,3.348,1.456,5.014,1.246,4.089.584,7.619-3.447,10a108.8,108.8,0,0,0-10.444,6.571c-1.859,1.407-3.065.068-4.565-.086"/>
        <path class="cls-2" d="M96.961,239.168c-3.458.272-6.62-1.384-9.406-2.7-7.04-3.324-13.987-2.3-21.094-1.3"/>
        <path class="cls-2" d="M205.961,576.668c-7.653.649-15.305,1.029-23,1.081-10.434.07-20.7-1.361-31-2.581"/>
        <path class="cls-2" d="M240.961,465.168c-10-.221-20.014.5-30-0.5"/>
        <path class="cls-2" d="M67.461,103.168c1.459,3.708,1.418,7.64,1.457,11.5,0.119,11.665.043,23.333,0.043,35"/>
        <path class="cls-2" d="M10.461,592.168c4.534,7.457,9.089,15.052,16.092,20.379,5.491,4.176,10.21,9.387,16.416,12.605,2.585,1.341,4.474,3.581,6.846,5.226a61.225,61.225,0,0,0,12.125,6.841c8.588,3.45,16.642,8.159,25.521,10.949"/>
        <path class="cls-2" d="M146.961,601.668c-0.839.319-2.6-.765-2.373,0.983,0.145,1.1.106,3.052,2.374,3.046,8.028-.023,15.931,2.075,24,1.471"/>
        <path class="cls-2" d="M349.961,550.668c1,1.833,2.058,3.638,2.99,5.5,4.8,9.612.62,16.32-5.49,22.5"/>
        <path class="cls-2" d="M270.961,560.168c-2.833-1-5.282-.393-8.051.89-6.364,2.949-12.385,7.205-19.949,6.61"/>
        <path class="cls-2" d="M272.461,502.168A63.092,63.092,0,0,0,258.894,506a21.883,21.883,0,0,1-10.433,1.664c-4.283-.5-6.552,1.589-8.088,5.47-1.363,3.445-1.982,7.435-5.412,9.785"/>
        <path class="cls-2" d="M180.461,549.668a1.412,1.412,0,0,1-.007.5c-6.168,15.087-4.687,30.82-4.051,46.505,0.124,3.07,1.394,6.841-2.941,8.5"/>
        <path class="cls-2" d="M278.961,253.168a22.667,22.667,0,0,0-11.582,2.339,22.8,22.8,0,0,1-15.918,1.661"/>
        <path class="cls-2" d="M245.961,89.668c0.319,12-.632,24.013.5,36"/>
        <path class="cls-2" d="M247.461,74.668c1.049,6.979.487,14,.443,21-0.063,10,.69,20.016-0.443,30"/>
        <path class="cls-2" d="M243.961,419.168c1.072,4.876.494,9.683-.481,14.5-1.245,6.151-2.352,12.329-3.519,18.5"/>
        <path class="cls-2" d="M103.961,560.168a5.216,5.216,0,0,0-.5-0.5c-9.894-7.492-21.04-4.991-32-4.011-0.661.059-1.333,0.008-2,.008"/>
        <path class="cls-2" d="M131.961,264.168c-6.167,2.417-12.23,5.163-18.532,7.148-5.22,1.644-10.219-.148-14.987-2.611-4.036-2.085-8.633-3.314-12.923-2.291a42.334,42.334,0,0,1-8.058.755"/>
        <path class="cls-2" d="M209.961,232.668c-5.746,1.862-11.669.628-17.5,1.017-2.833.189-5.724-.631-8.5,0.483"/>
        <path class="cls-2" d="M205.961,606.168c-4.284,2.444-8.977,1.412-13.5,1.436-4.161.022-8.37,0.652-12.5-.436"/>
        <path class="cls-2" d="M208.961,529.668c-8.152,4.383-16.985,1.821-25.5,2.5"/>
        <path class="cls-2" d="M60.961,137.668v25"/>
        <path class="cls-2" d="M246.961,166.168c-0.286,8.331.6,16.685-.5,25"/>
        <path class="cls-2" d="M282.461,548.668c-2.667,4.167-5.406,8.289-7.972,12.517a15.419,15.419,0,0,0-2.088,7.982c-0.1,6.833.66,13.69-.44,20.5"/>
        <path class="cls-2" d="M204.461,314.668c1.107,8.315.209,16.669,0.5,25"/>
        <path class="cls-2" d="M161.961,426.168c-2.946,1.755-5.585-.893-8.507-0.562-5.306.6-10.609,1.546-15.993,1.062"/>
        <path class="cls-2" d="M72.961,245.168c6.466-1.052,11.857,1.322,17.057,4.918,2.159,1.493,4.943,2.082,7.443,3.082"/>
        <path class="cls-2" d="M129.461,537.668l-9,3.6c0,7.058.166,13.735-.069,20.4a17.3,17.3,0,0,0,2.069,9.5"/>
        <path class="cls-2" d="M238.961,602.168c-7.571,2.877-15.624,3-23.52,3.8-1.371.138-2.65,0.494-3.984,0.671-2.568.341-5.03,0.182-6.5-2.472"/>
        <path class="cls-2" d="M200.961,591.668c-9,0-18,.112-27-0.044-5-.087-10.008-0.543-15-1.013-1.2-.113-2.339-0.943-3.505-1.443"/>
        <path class="cls-2" d="M105.961,622.668c-0.51,8.014-1.441,16.037.5,24"/>
        <path class="cls-2" d="M228.461,196.168c-1.694,8.135-2.631,16.286-.5,24.5"/>
        <path class="cls-2" d="M130.211,179.168c-1.946-3.629,2.751-6.241,1.481-10.076-0.42-1.269-.017-3.6.309-5.341-3.206-1.246-5.954,1.356-9.04.918"/>
        <path class="cls-2" d="M19.461,552.168c6.171,3.474,8.7,9.35,7.379,17.981-0.152.991-.134,2.032-0.379,3.019"/>
        <path class="cls-2" d="M132.961,94.168c-1.506,7.537-3.849,15.093.5,22.5"/>
        <path class="cls-2" d="M182.461,248.668c3.466,2.8,5.579,6.76,8.582,9.922,1.416,1.491,1.406,2.924,1.413,4.578,0.015,4,.005,8,0.005,12"/>
        <path class="cls-2" d="M208.961,58.668c-7.331.29-14.688-.6-22,0.5"/>
        <path class="cls-2" d="M98.961,276.168c-7.424-.6-14.379-4.142-22-3.5"/>
        <path class="cls-2" d="M48.961,83.668c6.46-.532,12.839-0.8,19.03,1.932,2.966,1.308,4.272,4.071,2.311,5.617-4.238,3.343-6.371,9.55-13.185,9.926-5.853-6.23-13.95-7.981-22.157-9.475"/>
        <path class="cls-2" d="M295.461,515.168c-2.833-1.167-5.908-1.958-8.445-3.586a20.212,20.212,0,0,0-13.055-2.914"/>
        <path class="cls-2" d="M101.461,174.168c-4.006-.262-8,0.372-12.031-0.9-4.409-1.392-6.636,2.6-9.469,4.9"/>
        <path class="cls-2" d="M99.961,270.668c0.058,3.838-.6,7.707.437,11.283l16.063,3.217"/>
        <path class="cls-2" d="M311.461,496.168c7.167,0.14,14.35-.391,21.5.5"/>
        <path class="cls-2" d="M109.961,579.168a28.86,28.86,0,0,0,21.5,2"/>
        <path class="cls-2" d="M336.961,108.668c-2.24-4.946-6.733-3.989-10.469-3.324-2.991.532-6.031,1.16-8.814,1.765-0.933,2.183-.686,4.382-0.718,6.559"/>
        <path class="cls-2" d="M259.961,196.668c0.286,7-.607,14.022.5,21"/>
        <path class="cls-2" d="M186.961,252.168h21"/>
        <path class="cls-2" d="M295.461,640.168c-5.045,4.084-10.176,7.927-16.461,10.113-2.571.894-4.828-1.484-7.014-.073-4.451,2.875-9.448,3.749-14.526,4.46"/>
        <path class="cls-2" d="M149.961,680.168c5.07,2.77,10.735.726,16.01,1.956,1.608,0.375,3.387-.257,4.99.544"/>
        <path class="cls-2" d="M89.461,674.668c2.343,2.693,1.283,5.955,1.494,9,0.265,3.828-.532,7.7.506,11.5"/>
        <path class="cls-2" d="M88.461,646.668c1.727-6.278,1.762-12.465-.841-18.2-11.194-.932-21.079-3.407-24.619-15.81-0.27-.946-0.977-1.044-1.535-1.495-5.678-4.583-11.438-9.277-19.014-9.878-4.809-.382-9.227-2.218-13.98-2.717-2.842-.3-3.539-3.665-5.4-5.239-2.569-2.177-4.633-4.838-7.481-6.849-4.42-3.12-3.372-8.224,1.867-13.312"/>
        <path class="cls-2" d="M97.961,286.168c-4.667-1.5-9.421-2.78-13.964-4.591-2.341-.933-4.013.705-6.036,0.591"/>
        <path class="cls-2" d="M260.461,221.668c-0.861,5.479-.4,11-0.485,16.5-0.03,1.986.243,4.01-1.515,5.5"/>
        <path class="cls-2" d="M335.461,443.668c-4.949,7.165-4.949,13.05,0,20"/>
        <path class="cls-2" d="M108.961,653.668c-2.133,6.864-3.3,13.656,1.5,20"/>
        <path class="cls-2" d="M116.461,223.668a64.862,64.862,0,0,0,1,22"/>
        <path class="cls-2" d="M336.461,410.668c-4.959,6.435-5.106,13.111-1,20"/>
        <path class="cls-2" d="M82.961,585.168c0.733,5.22,5.269,5.99,9.026,7.432,2.8,1.073,5.829,1.535,8.474,3.068"/>
        <path class="cls-2" d="M164.961,61.168c-3.951-.618-5.187,1.292-5.045,5a133.234,133.234,0,0,1-.027,14.493c-0.373,5.253.645,9.814,4.572,13.505"/>
        <path class="cls-2" d="M149.461,101.668c-1.049-1.926-.453-4.005-0.458-6-0.007-3.231-2.277-4.086-4.508-3.595-2.045.45-4.041,0.323-6.03,0.623-7.51,1.132-7.5,1.173-7.5-6.028"/>
        <path class="cls-2" d="M79.461,197.168c4.592,2.861,9.914,3.307,15,4.48,8.6,1.983,17.25,3.715,25.978,5.125,5.608,0.906,10.875.932,16.017-1.6"/>
        <path class="cls-2" d="M240.961,75.168c-2.993,6.366-6.915,12.351-8,19.5"/>
        <path class="cls-2" d="M130.461,169.168c-4-1-7.972-2.146-12.013-2.931-1.712-.333-3.69-0.536-5.014,1.413-1.1,1.621-2.879,1.105-4.473,1.018"/>
        <path class="cls-2" d="M99.461,115.168c-2.717-.415-4.091.626-4.018,3.5,0.08,3.165-.2,6.353.083,9.494,0.269,2.934-.806,3.932-3.565,3.506"/>
        <path class="cls-2" d="M103.461,517.668c1.286,9.634.843,19.326,1.089,29,0.057,2.258-1.316,2.368-2.589,3"/>
        <path class="cls-2" d="M277.961,269.668c-6.356-.571-12.446.833-18.5,2.5"/>
        <path class="cls-2" d="M135.461,474.668h-18.5"/>
        <path class="cls-2" d="M278.961,241.668c-4.167-.333-8.4-0.33-12.475-1.128-2.388-.467-3.945,1.278-6.025,1.128"/>
        <path class="cls-2" d="M94.961,95.668c0.312,6-.646,12.027.5,18"/>
        <path class="cls-2" d="M57.461,173.668c-1.154,2.945-.79,6.106-0.336,8.974a23.736,23.736,0,0,1-.664,9.026"/>
        <path class="cls-2" d="M181.961,59.168a65.818,65.818,0,0,0-18,0"/>
        <path class="cls-2" d="M134.461,202.168a21.839,21.839,0,0,0-17.5-3.5"/>
        <path class="cls-2" d="M200.961,683.168a30.684,30.684,0,0,0-16.471.588c-1.684.547-3.029-1.478-4.529-.088"/>
        <path class="cls-2" d="M278.461,484.668c-4.791,11.393-6.078,23.326-4.922,35.493,0.625,6.575-2.71,12.015-4.078,18.007"/>
        <path class="cls-2" d="M260.961,55.168c-1,.833-1.978,1.7-3,2.5-6.248,4.873-6.705,6.28-4.5,14"/>
        <path class="cls-2" d="M55.961,102.168c-4.536,3.765-10.116,5.958-14.567,9.925-2.538,2.263-5.921.84-8.93,0.543a38.658,38.658,0,0,1-4.5-.968"/>
        <path class="cls-2" d="M121.961,281.168c5.574,2.511,11.472,3.137,17.5,3"/>
        <path class="cls-2" d="M258.461,272.168c-5.57,1.969-11.339.578-17,1"/>
        <path class="cls-2" d="M136.461,430.168c-5.666.344-11.433-1.034-17,1"/>
        <path class="cls-2" d="M219.961,633.168c-3.331-2.963-7.349-1.318-11-1.329-2.09-.006-4.1.677-6-0.671"/>
        <path class="cls-2" d="M133.461,641.668c-4.887-3.722-10.076-6.679-16.5-6.5"/>
        <path class="cls-2" d="M97.461,184.168c-3.833-.667-7.758-1.022-11.466-2.114-2.31-.68-3.8.253-5.534,1.114"/>
        <path class="cls-2" d="M252.961,637.668c2.049,5.5,2.145,11.456,4.833,17.482-6.279.731-11.792,1.6-17.338,1.941-3.886.239-4.608-3.986-7-5.923"/>
        <path class="cls-2" d="M330.961,138.168c5.338,1.931,10.955,2.543,16.5,3.5"/>
        <path class="cls-2" d="M101.961,185.668a47.085,47.085,0,0,1,15.369,4.255c5.041,2.449,11.007,3.129,16.644,4.172,4.008,0.741,8.081,1,11.486,3.573"/>
        <path class="cls-2" d="M137.961,93.668c0.289,5.5-.6,11.028.5,16.5"/>
        <path class="cls-2" d="M300.461,627.668c-0.5,2-.576,4.254-1.589,5.947-2.045,3.416-2.165,6.874-1.411,10.553"/>
        <path class="cls-2" d="M145.461,90.168c0-6.653,2.834-13.523-2.852-19.638-2.1-2.262-3.258-3.282-6.2-1.989a4.446,4.446,0,0,1-4.444-.373"/>
        <path class="cls-2" d="M80.461,214.168l16.5,5"/>
        <path class="cls-2" d="M262.461,77.168c-1.413,8.476-.086,17-0.5,25.5"/>
        <path class="cls-2" d="M230.961,526.168c-5.305,1.07-10.67.228-16,.5"/>
        <path class="cls-2" d="M141.961,625.668c2.5,0,5-.041,7.5.023,0.837,0.022,1.856-.476,2.495.481,3.541,5.31,9.307,3.12,14.033,3.815,5.736,0.844,11.7-.28,17.473,1.181"/>
        <path class="cls-2" d="M220.461,430.668c-1,0-2.009-.086-3,0.014-6.333.639-7.71,2.56-6.5,8.986"/>
        <path class="cls-2" d="M323.961,269.168a6.356,6.356,0,0,0-6.987.023c-2.877,1.638-5.649,3.464-9.013,3.977"/>
        <path class="cls-2" d="M82.961,193.668c-5.024-1.543-8.429,1.063-11.5,4.5-1.022,1.147-2,2.33-3,3.5"/>
        <path class="cls-2" d="M118.211,246.668c2.228,3.244,5.889,1.424,8.775,2.428,2.036,0.708,4.308.739,6.475,1.072"/>
        <path class="cls-2" d="M258.961,152.668a109.727,109.727,0,0,1-10.966-3.087c-2.942-1.144-4.972-.758-7.077,1.548-2.139,2.344-4.624,4.372-6.957,6.539"/>
        <path class="cls-2" d="M357.461,619.668a59.912,59.912,0,0,1,.084,15.508c-0.261,2.616-.572,5.376.416,7.992"/>
        <path class="cls-2" d="M208.961,508.668c0.42-3.493-2.912-3.212-4.563-3.831-2.941-1.1-6.27-1.169-9.437-1.669"/>
        <path class="cls-2" d="M141.461,292.668c4.975,2.02,10.325,1.719,15.5,2.5"/>
        <path class="cls-2" d="M65.461,658.668c0.273,5.79,5.579,8.49,10.5,9.026a22.481,22.481,0,0,1,12.5,5.474"/>
        <path class="cls-2" d="M232.461,95.668c-1.4,5.1.389,10.4-1,15.5"/>
        <path class="cls-2" d="M306.461,175.668c5.1,1.333,10.178,2.8,15.5,3"/>
        <path class="cls-2" d="M317.961,108.168L323.8,114l16.157-2.6c0,4.39.16,9.088-.079,13.766-0.095,1.853.051,2.76,2.079,2.5"/>
        <path class="cls-2" d="M116.461,197.668c-3.906-2.753-8.741-2.025-13.043-3.362-1.169-.363-2.346,1.472-2.957,2.862"/>
        <path class="cls-2" d="M243.461,149.668c1.144,5.044.352,10.023-.5,15"/>
        <path class="cls-2" d="M273.961,68.168c-5.132-1.653-10.264-3.293-15,1"/>
        <path class="cls-2" d="M99.961,180.668l15,4"/>
        <path class="cls-2" d="M228.961,440.668h-15"/>
        <path class="cls-2" d="M219.461,295.168a27.98,27.98,0,0,0-15,1"/>
        <path class="cls-2" d="M140.961,625.168c-2.665-1.692-6.962.087-8.5-4-3.1,1.484-6.334.458-9.489,0.665-3.062.2-6.034,1.762-9.049,2.727-2.57-2.136-4.741-4.291-9.053-2.629-3.063,1.181-6.779-.616-9.909-2.264"/>
        <path class="cls-2" d="M167.461,161.168c-4.359,3.586-9.524,2.5-14.5,2.5"/>
        <path class="cls-2" d="M69.461,176.668c1.451,4.756-.423,9.742,1,14.5"/>
        <path class="cls-2" d="M90.461,610.168l14.5,4"/>
        <path class="cls-2" d="M361.461,546.668c4.556,6.325,4.556,6.325-1,14.5"/>
        <path class="cls-2" d="M69.961,156.668c-0.118,5.22,1.472,11.049-5,14"/>
        <path class="cls-2" d="M98.961,197.668c5.5,0.981,10.763,3.3,16.5,3"/>
        <path class="cls-2" d="M123.461,572.168c-3.99-1.793-7.413-1.842-10.067,2.459-1.279,2.073-3.266,3.708-4.933,5.541"/>
        <path class="cls-2" d="M229.461,62.668c-2.526-4.548-7.9-5.891-12-3"/>
        <path class="cls-2" d="M243.961,630.168c-1.559-1.468-2.849-4.173-4.975-3.839-4.079.642-8.114,0.94-12.171,3.059-5.847,3.054-8.036,7.776-9.862,13.277-0.448,1.351-.992,2.669-1.492,4"/>
        <path class="cls-2" d="M254.961,621.168c-5.528-1.681-9.866.8-14,4"/>
        <path class="cls-2" d="M137.961,635.668c-3.168.087-6-1.328-8.988-2.048-1.817-.438-3.495-1.113-5.012.548"/>
        <path class="cls-2" d="M78.961,178.668c0.373,7.009,2.035,9.162,8.512,9.891,1.885,0.212,2.991,2.209,4.988,1.609"/>
        <path class="cls-2" d="M119.961,513.168l1,14"/>
        <path class="cls-2" d="M290.961,72.668c-3.444.892-6.639,3.19-10.53,1.572a4.353,4.353,0,0,0-2.956.46c-7.3,3.251-14.307,3.053-21.013-1.534a3.759,3.759,0,0,0-4.028-.563c-5.673,2.349-11.212,2.442-16.518-1.372C234.2,70,231.961,69.5,229.961,68.668"/>
        <path class="cls-2" d="M71.961,175.668c-5.039-.031-5.7,4.671-7.924,7.558-1.56,2.031-2.409,4.608-3.576,6.942"/>
        <path class="cls-2" d="M153.461,279.168c-3.55,3.939-6.212,9.322-13,8"/>
        <path class="cls-2" d="M243.961,293.168c-5.567-2.054-10.989.682-16.5,0.5"/>
        <path class="cls-2" d="M88.461,649.668c2.027,1.209,1.327,3.217,1.518,5,0.538,5.031,1.139,10.052-.518,15"/>
        <path class="cls-2" d="M100.461,597.668c-4.266,4.668-10.111,8.126-11.5,15"/>
        <path class="cls-2" d="M259.461,514.168a25.562,25.562,0,0,0,13.5,3"/>
        <path class="cls-2" d="M246.961,126.668l0.5,17.5"/>
        <path class="cls-2" d="M107.461,599.668c-2.774-3.621-2.383-7.553-.973-11.49a5.108,5.108,0,0,0-2.067-6.449,28.551,28.551,0,0,1-7.415-6.593c-1.416-1.93-3.289-1.55-5.04-1.416a7.6,7.6,0,0,1-7.1-2.967c-2.408-2.858-5.567-5.084-8.4-7.584"/>
        <path class="cls-2" d="M126.461,267.668c-0.822.5-.535,1.328-0.479,2,0.557,6.634-3.488,10.7-8.021,14.5"/>
        <path class="cls-2" d="M229.961,267.168c-4.3,1.142-8.672.183-13,.5"/>
        <path class="cls-2" d="M157.961,277.168c-2.8,2.171-6.029,1.189-8.988.883-2.85-.295-5.675-0.279-8.512-0.383"/>
        <path class="cls-2" d="M188.961,278.168c-4.7,2.2-9.673.732-14.5,0.9-3.474.118-7.153,1.086-10.5-.9"/>
        <path class="cls-2" d="M271.961,425.168c-1.931-.91-4.186-2.126-5.419.537-1.425,3.077-4.619,4.532-6.081,7.463"/>
        <path class="cls-2" d="M5.961,121.668c0.277,1.572-.784,3.284.853,4.711,2.444,1.381,5.324-.131,8.147.289"/>
        <path class="cls-2" d="M313.961,123.668c-5.968,0-6.077,0-5.954,6,0.061,3-.7,6.056.454,9"/>
        <path class="cls-2" d="M260.961,120.668c1.9,9.49-2.32,16.07-10,21"/>
        <path class="cls-2" d="M117.461,271.668c-1.4,4.286-1.174,8.634-.5,13"/>
        <path class="cls-2" d="M219.461,142.668c0.4,4.112,4.267,8.658-1.5,12"/>
        <path class="cls-2" d="M302.961,179.668a3.863,3.863,0,0,1,.486,1c1.063,6.7,7.739,10.418,9.014,17"/>
        <path class="cls-2" d="M132.961,648.168l-2.489-1.016c3.467-4.771,3.684-4.6,8.526-2.573,3.475,1.457,7.3,2.089,10.963,3.089"/>
        <path class="cls-2" d="M278.461,654.168l1,12"/>
        <path class="cls-2" d="M221.961,252.168c-3.957-1.206-8.006-.192-12-0.5"/>
        <path class="cls-2" d="M132.961,526.168c-5.05-1.268-5.05-1.268-13,2,1.35,4.085-.374,8.417,1,12.5"/>
        <path class="cls-2" d="M341.461,259.168a7.119,7.119,0,0,0-6.5-.5,7.282,7.282,0,0,1-5.5,0"/>
        <path class="cls-2" d="M364.461,136.668c1.364,4.338-.925,8.068-2,12"/>
        <path class="cls-2" d="M218.961,277.668c-6.324.612-12.617,1.634-19,1.495-1.4-.031-2.917.337-4-0.995"/>
        <path class="cls-2" d="M120.461,626.168c1.544,1.926,3.669.654,5.5,0.992,6.307,1.164,12.486,2.991,19,3.09,2.674,0.041,5.335,2.82,8-.082"/>
        <path class="cls-2" d="M260.961,288.668c-4.665.352-9.276,1.469-14,1"/>
        <path class="cls-2" d="M284.461,195.668a39.7,39.7,0,0,0-6-.43c-1.762.124-4.393-.365-4,2.93"/>
        <path class="cls-2" d="M361.961,121.168c1.922,3.6,3.98,7.164,2.5,11.5"/>
        <path class="cls-2" d="M120.961,615.168c3.4,1.741,7.9.907,10.5,4.5"/>
        <path class="cls-2" d="M338.961,161.668l1.5,11.5"/>
        <path class="cls-2" d="M346.461,147.668c2.831,2.984,1.4,6.678,1.377,10-0.029,3.657-.28,7.2,1.623,10.5"/>
        <path class="cls-2" d="M30.461,158.668c-1.387,3.9,1.366,7.622.5,11.5"/>
        <path class="cls-2" d="M247.961,97.668c-4.817.01-9.338-1.642-14-2.5"/>
        <path class="cls-2" d="M124.961,680.668l-11.5,1.5"/>
        <path class="cls-2" d="M186.461,369.668a16,16,0,0,0-4,11"/>
        <path class="cls-2" d="M29.961,138.668c0.319,3.66-.656,7.378.5,11"/>
        <path class="cls-2" d="M203.961,161.168c3.389,2.536,7.314,1.14,11,1.5"/>
        <path class="cls-2" d="M139.961,131.168l-11,.5"/>
        <path class="cls-2" d="M47.461,156.668c1.553,5.065-.557,10.484,1.455,16.617,2.2-2.691,4.845-.848,7.045-2.117"/>
        <path class="cls-2" d="M138.961,145.168c-3.443,1.816-7.325,1.7-11,2.5"/>
        <path class="cls-2" d="M59.461,106.668c1.162,4.631.288,9.335,0.5,14"/>
        <path class="cls-2" d="M361.961,609.168a25.752,25.752,0,0,1-11,2.5"/>
        <path class="cls-2" d="M104.961,596.668h-4.145c1.3,4.1.074,8.392,1.124,13,2.331,0,4.676.011,7.021,0,9.517-.052,13.639,4.858,10.5,13"/>
        <path class="cls-2" d="M104.461,549.668c1.267,6.04-.018,12.009-0.5,18"/>
        <path class="cls-2" d="M117.961,589.168a45.993,45.993,0,0,0-10.5-2.5"/>
        <path class="cls-2" d="M23.461,228.168c-1.555,3.328-1.7,6.991-2.5,10.5"/>
        <path class="cls-2" d="M192.961,633.668c1.027-.152,2.172-0.011,2.456,1.012,1.5,5.4,6.991,5.72,10.544,8.488"/>
        <path class="cls-2" d="M53.961,255.168c4.282,0.488,8.2,2.336,11.911,4.179a10.342,10.342,0,0,0,8.089.821"/>
        <path class="cls-2" d="M343.961,126.668H347.5c0.633,3,1.251,6.5-.536,10"/>
        <path class="cls-2" d="M227.961,163.668l-10,9"/>
        <path class="cls-2" d="M75.461,277.668c-4.412.649-8.2-1.29-11.985-3.034-2.835-1.306-5.57-2.21-8.515-.466"/>
        <path class="cls-2" d="M273.961,441.668h10"/>
        <path class="cls-2" d="M115.961,251.668c1.548,3.176-.8,6.936,1.5,10"/>
        <path class="cls-2" d="M128.961,177.668c-4.882,2.1-9.852,2.879-15,1"/>
        <path class="cls-2" d="M250.461,65.168c-1.716-3.881-5.532-2.66-8.5-3.5"/>
        <path class="cls-2" d="M242.961,131.668c-2.713,3.371-6.054,2.767-9.5,1.5"/>
        <path class="cls-2" d="M259.961,53.668c3.791,3.4,1.594,7.589,1.5,11.5"/>
        <path class="cls-2" d="M244.461,201.168a7.1,7.1,0,0,0-5-.979c-5.757,1.018-5.729,1.044-8.044-4.5a3.786,3.786,0,0,0-1.459-1.017"/>
        <path class="cls-2" d="M149.961,186.668c2.288,3.465,2.194,6.42-1.457,9.059-1.588,1.148-2.709,2.941-4.043,4.441"/>
        <path class="cls-2" d="M143.961,74.168c-4.116,2.082-8.569,1.873-13,2.044-3.021.117-3.2-2.885-5-4.044"/>
        <path class="cls-2" d="M5.461,127.168c-3.194,2.358-.754,5.71-1.5,8.5"/>
        <path class="cls-2" d="M163.961,645.668c2.915,1.141,6.427.128,9,2.5"/>
        <path class="cls-2" d="M113.461,609.168c-0.063-3.249,3.183-5.579,2.426-9.051-3.221-2.229-6.873-2.231-9.27.679-1.965,2.385-1.258,5.747.845,8.372"/>
        <path class="cls-2" d="M234.461,201.668c-1.01,3-.516,6,0,9"/>
        <path class="cls-2" d="M241.961,585.168l-9,.5"/>
        <path class="cls-2" d="M29.461,252.168l-9,2"/>
        <path class="cls-2" d="M250.461,199.668c0.3-.806,1.59-1.322.519-2.517-1.894-2.112-3.673-4.327-5.452-6.441-4.994.647-10.271,0.249-14.067,4.458"/>
        <path class="cls-2" d="M129.461,77.168c0.4,2.826-.929,5.854,1,8.5"/>
        <path class="cls-2" d="M135.961,180.668h-3.689c1.52,4.219,5.944,1.369,7.867,4.218,1.015-2.267,1.392-3.627-1.178-3.218"/>
        <path class="cls-2" d="M101.461,177.668a9.949,9.949,0,0,0-3.077,9.009c0.254,2.116.52,4.384-.423,6.491"/>
        <path class="cls-2" d="M205.461,208.668c4.849-4.147,8.788-4.268,11.532-.524,1.256,1.714-.7,4.144,1.468,5.524"/>
        <path class="cls-2" d="M122.961,686.168c1.333,5.321.077,7.992-4,8.5"/>
        <path class="cls-2" d="M36.961,96.168l-11.5,9.521a5.805,5.805,0,0,0,2,4.979"/>
        <path class="cls-2" d="M30.961,85.668c-2.41,1.419-3.556,2.773-2.195,6.08,1.212,2.946-.769,6.651.695,9.92"/>
        <path class="cls-2" d="M132.961,688.668h-8.5"/>
        <path class="cls-2" d="M205.961,635.668l-8,1"/>
        <path class="cls-2" d="M48.961,267.168c-3.374-.185-5.947-2.252-8.431-4.094a6.55,6.55,0,0,0-6.569-.906"/>
        <path class="cls-2" d="M122.961,642.668l-11.5-3"/>
        <path class="cls-2" d="M146.461,642.168c-2.667-.775-5.333-1.8-8,0"/>
        <path class="cls-2" d="M120.461,610.168c2.265-2.414,1.224-7.717,6.5-7.491,2.669,0.115,5.865-.537,7.871.7,2.757,1.7,3.52-.588,5.129-1.209"/>
        <path class="cls-2" d="M110.461,170.168c-2.955,1.2-3.9,5.634-8,5"/>
        <path class="cls-2" d="M140.961,184.168l8,2"/>
        <path class="cls-2" d="M359.961,641.668c-1.865,4.4-5.387,3.838-9,3"/>
        <path class="cls-2" d="M92.961,69.168c3.425,1.247,6.72,1.921,9-2,0.485-.833,1.314-0.4,2-0.5"/>
        <path class="cls-2" d="M76.961,77.668h-13"/>
        <path class="cls-2" d="M154.961,60.168c-2.611-1.063-5.34-.225-8-0.5"/>
        <path class="cls-2" d="M361.961,218.668c0.046,2.769-.1,5.5-1.5,8"/>
        <path class="cls-2" d="M285.961,188.668c-1.946,5.07-.695,10.034.5,15"/>
        <path class="cls-2" d="M134.461,594.168l-6,7.5"/>
        <path class="cls-2" d="M218.961,485.168c-2.381,1.426-5.9,1.08-7,4.5"/>
        <path class="cls-2" d="M120.961,600.168c1.154-2,1.608-3.95.018-6.014-1.559-2.025-3.43-.792-5-0.411-3.475.843-6.162-2.275-9.518-1.575"/>
        <path class="cls-2" d="M108.961,256.668l-7.5,7"/>
        <path class="cls-2" d="M115.961,629.168c1.993,2.087,4.84.193,7,1.5"/>
        <path class="cls-2" d="M191.961,633.168c-2.186-1.363-4.814.363-7-1"/>
        <path class="cls-2" d="M279.461,634.668c0.154,2.359,1.527,4.544,1,7"/>
        <path class="cls-2" d="M328.461,567.168l7,3"/>
        <path class="cls-2" d="M216.461,212.168c-2.333-.8-4.667-1.7-7,0"/>
        <path class="cls-2" d="M296.961,593.668l0.5,7"/>
        <path class="cls-2" d="M191.961,628.168a10.325,10.325,0,0,0-7,0"/>
        <path class="cls-2" d="M230.461,487.668c-0.5,2.31-1.3,4.577-1,7"/>
        <path class="cls-2" d="M277.961,285.668h-7"/>
        <path class="cls-2" d="M29.961,87.168c2.3,0.679,4.479,1.877,7,1.5"/>
        <path class="cls-2" d="M15.461,230.668c-2.109,1.921.109,5.079-2,7"/>
        <path class="cls-2" d="M354.961,109.668c-1.669-2.948-3.884-4.34-7.521-3.6-2.049.414-4.312-.229-6.479-0.4"/>
        <path class="cls-2" d="M288.961,264.668c-2.339-.081-4.722.441-7-0.5"/>
        <path class="cls-2" d="M317.461,252.168c0.427,2.152,1.4,4.22,1,6.5"/>
        <path class="cls-2" d="M305.461,645.668c-0.4,2.28.573,4.348,1,6.5"/>
        <path class="cls-2" d="M305.461,260.668h-6.5"/>
        <path class="cls-2" d="M90.961,439.668l-6.5,2.5"/>
        <path class="cls-2" d="M207.961,472.668l-6.5-.5"/>
        <path class="cls-2" d="M224.461,75.668h-6.5"/>
        <path class="cls-2" d="M250.961,423.668c-1.392,2.932-4.014.943-6,1.5"/>
        <path class="cls-2" d="M137.961,84.668c0.167,2.167-.443,4.393.5,6.5"/>
        <path class="cls-2" d="M248.961,581.668h-6"/>
        <path class="cls-2" d="M345.961,642.668c-2.211.345-4-1.012-6-1.5"/>
        <path class="cls-2" d="M140.461,76.168c1.178,6.264,1.017,6.449-4.991,7.547a8.752,8.752,0,0,0-2.509,1.453"/>
        <path class="cls-2" d="M135.961,138.168c-1.538,2.349-3.937,1.253-6,1.5"/>
        <path class="cls-2" d="M286.961,281.668l-6,1.5"/>
        <path class="cls-2" d="M204.961,417.668c-0.234,1.994.549,4.074-.5,6"/>
        <path class="cls-2" d="M100.961,436.668l-6,1"/>
        <path class="cls-2" d="M306.461,169.668c-2.09,3.586-.335,7.84-2,11.5"/>
        <path class="cls-2" d="M294.961,446.668c1.939,0.9,4,.346,6,0.5"/>
        <path class="cls-2" d="M120.461,492.668c-1.293,2.333-1.769,4.667,0,7"/>
        <path class="cls-2" d="M223.461,486.668a11.025,11.025,0,0,1-2,5.5"/>
        <path class="cls-2" d="M345.961,100.668c2.5,0.835,2.679,2.827,2.5,5"/>
        <path class="cls-2" d="M161.961,647.168c0.582-.784,2-1.258,1.458-2.481-0.878-1.966-2.8-1.482-4.458-1.519"/>
        <path class="cls-2" d="M279.461,79.168a6.424,6.424,0,0,1,.5,5.5"/>
        <path class="cls-2" d="M124.461,72.668a5.026,5.026,0,0,0-.34,4.9c1.491,2.329.326,4.1-.16,6.1"/>
        <path class="cls-2" d="M89.461,663.168c-2.143-.432-3.717-1.908-5.5-3"/>
        <path class="cls-2" d="M74.961,599.668l-5,.5"/>
        <path class="cls-2" d="M136.961,604.668v5"/>
        <path class="cls-2" d="M135.961,613.668c-0.071,1.676.34,3.4-.813,5h4.813"/>
        <path class="cls-2" d="M60.961,167.668c0.927,2.091,2.532,4.6-.549,5.882-2.538,1.053-3.864-1.335-4.331-3.409-0.225-1-1.207-1.472-1.12-2.473"/>
        <path class="cls-2" d="M25.461,153.668c-1.059,1.577-.23,3.344-0.5,5"/>
        <path class="cls-2" d="M123.961,643.168c1.244,1.724,3.625.6,5,2"/>
        <path class="cls-2" d="M245.461,83.168l0.5,4.5"/>
        <path class="cls-2" d="M275.461,591.168l4.5,0.5"/>
        <path class="cls-2" d="M78.461,177.668c-1.191-1.722-2.984-.737-4.5-1"/>
        <path class="cls-2" d="M246.461,600.168l4.5,0.5"/>
        <path class="cls-2" d="M116.461,199.668c-2.021,1.845.212,4.045-.5,6"/>
        <path class="cls-2" d="M48.961,163.668c1.673-.012,3.5-0.332,4,2"/>
        <path class="cls-2" d="M170.961,634.668c-1.321-.268-2.778.558-4-0.5"/>
        <path class="cls-2" d="M93.461,191.168c5.729,1.431,5.407,5.583,4.5,10"/>
        <path class="cls-2" d="M145.961,691.668h7"/>
        <path class="cls-2" d="M123.461,603.668c-1.246-3.538-3.709-4.235-7-3"/>
        <path class="cls-2" d="M119.461,180.668c-2,2.145-5.1,3.7-4,7.5"/>
        <path class="cls-2" d="M106.961,128.668l-4,.5"/>
        <path class="cls-2" d="M359.961,115.668c0.842,1.565-2.213,3.909,1,5"/>
        <path class="cls-2" d="M252.961,93.668l-4,3.5"/>
        <path class="cls-2" d="M329.961,89.668c2.311,0.526,1.253,2.4,1.5,3.75"/>
        <path class="cls-2" d="M113.961,594.668c0.645,1.657-1.336,2.189-1.5,3.5"/>
        <path class="cls-2" d="M249.961,165.668c-2.08.4-3.662-1.019-5.5-1.5"/>
        <path class="cls-2" d="M106.461,612.168a6.069,6.069,0,0,0-1.5,5"/>
        <path class="cls-2" d="M117.461,249.668l-4.5,3"/>
        <path class="cls-2" d="M36.961,86.668c-0.592,1.994,1.71,3.12,1.5,5"/>
        <path class="cls-2" d="M360.961,636.668c3.811-.159,1.285,1.794,1,3"/>
        <path class="cls-2" d="M206.461,210.168c-0.469-2.129-2.186-1.344-3.5-1.5"/>
      </g>
    </g>
    <g>
      <path class="cls-3" d="M491.143,416.841q-24.538-6.649-34.587-15.142T436.85,368.46V279.64q0-31.94.2-53.551t1.005-40.44q0.8-18.835,2.414-50.227,4.419-.362,9.049-1.107t28.754,3.323q0.4,18.835-.6,48.011t-1.005,61.676q0,17.364-1.41,39.517a413.107,413.107,0,0,0-.6,42.656q0.8,20.5,6.033,35.824t18.5,18.651q42.23,3.324,46.051-19.019t7.843-53.736q0-65-1.005-100.269t-1.811-52.074q-0.813-16.8-1.406-20.866a17.075,17.075,0,0,1,.2-7.018,35.833,35.833,0,0,1,19.3-2.77,159.917,159.917,0,0,0,20.51,1.293q1.6,38.778,3.421,77t4.222,77A326.018,326.018,0,0,1,593.3,333.19q-3.623,26.41-9.654,37.486-9.255,34.346-37,39.332A501.894,501.894,0,0,1,491.143,416.841Z"/>
      <path class="cls-3" d="M684.189,416.841a78.463,78.463,0,0,0-16.893,1.107,62.059,62.059,0,0,1-16.49.739q-3.62-50.222-2.614-100.824T650.806,216.3q8.445-.364,17.3-0.923t17.7-1.293v16.25q35.79-18.836,61.334-13.111t35.191,47.457q0,30.287-.2,47.642t-0.4,31.207q-0.209,13.849-.805,28.622t-1.408,39.517q-2.413,1.481-7.038,1.478t-29.159-1.478q0-36.925,1.005-73.125a502.633,502.633,0,0,0-3.82-75.34q-6.846-11.815-18.1-13.665-15.291,0-20.109,1.292t-11.665,13.849q-2.816,8.128-3.82,32.87T685.6,348.7q-0.206,26.41-.4,47.088T684.189,416.841Z"/>
      <path class="cls-3" d="M881.657,413.886q-16.891-7.756-22.723-14.773t-10.658-23.637q-3.62-25.11-3.217-60.2t-0.4-66.847q-9.653-1.108-24.131-2.585V211.131q6.834-.362,14.077-0.923t14.479-1.292q1.2-9.228,2.412-18.651t2.816-18.281q11.256-1.108,14.882-1.108t13.674,1.108q1.2,10.344,2.211,20.681t2.614,20.312q6.033,0.745,12.468,1.293t13.273,1.293q-0.407,7.391-1.005,14.773t-0.6,15.141q-13.27,1.108-18.5,1.293a32.886,32.886,0,0,0-10.86,2.4q-3.62,26.963-5.027,67.4t9.452,54.474q5.223,6.647,10.858,5.54a30.979,30.979,0,0,1,11.665,0q0.395,8.864.8,18.1t1.608,18.1a147.6,147.6,0,0,1-15.082.738Q888.9,413.517,881.657,413.886Z"/>
      <path class="cls-3" d="M954.049,189.342q1.208-9.972,2.213-19.759t2.211-19.758q8.843,0,18.3-.923a29.52,29.52,0,0,1,17.494,3.508,193.149,193.149,0,0,1-.2,19.759,139.078,139.078,0,0,0,.2,19.758,169.494,169.494,0,0,1-20.109-1.108Q964.9,189.711,954.049,189.342Zm2.816,223.806q-0.81-50.222-1.005-78.665t-0.2-47.088q0-18.645.2-33.793t1.005-39.147q8.042-.364,16.087-0.923t16.087-1.293q1.208,50.23,1.811,78.48t1.005,46.9q0.395,18.653.2,33.978t-0.2,39.7Q973.758,416.841,956.865,413.148Z"/>
      <path class="cls-3" d="M1094.412,413.886q-16.891-7.756-22.723-14.773t-10.658-23.637q-3.62-25.11-3.217-60.2t-0.4-66.847q-9.653-1.108-24.131-2.585V211.131q6.834-.362,14.077-0.923t14.479-1.292q1.2-9.228,2.412-18.651t2.816-18.281q11.256-1.108,14.882-1.108t13.674,1.108q1.2,10.344,2.211,20.681t2.614,20.312q6.033,0.745,12.468,1.293t13.273,1.293q-0.407,7.391-1.005,14.773t-0.6,15.141q-13.27,1.108-18.5,1.293a32.886,32.886,0,0,0-10.86,2.4q-3.62,26.963-5.027,67.4t9.452,54.474q5.223,6.647,10.858,5.54a30.979,30.979,0,0,1,11.665,0q0.395,8.864.8,18.1t1.608,18.1a147.6,147.6,0,0,1-15.082.738Q1101.653,413.517,1094.412,413.886Z"/>
      <path class="cls-3" d="M1170.021,413.148q-0.407-67.586-.4-135.54V142.069q10.048,0,18.3-.554t19.1-.555q-1.611,34.348-1.809,55.767t0,47.088q0.2,25.673.4,63.707t-1.005,105.625q-9.653,0-17.3.554A93.592,93.592,0,0,1,1170.021,413.148Z"/>
      <path class="cls-3" d="M1324.054,417.58q-30.164-4.8-41.627-14.588t-20.31-36.378q-2.413-31.759-4.222-67.4t11.461-66.292q21.315-19.572,41.829-20.867t47.055,11.264q2.81,6.285,6.033,12.557t6.838,12.926q1.6,23.267,1.809,32.684t-0.2,42.656H1295.1a220.375,220.375,0,0,0,2.814,42.656q3.62,23.457,36.2,6.832,4.015-12.923,8.849-25.482a82.051,82.051,0,0,1,13.271-2.4q4.015-.183,19.306.184,0,32.5-9.049,47.088T1324.054,417.58Zm-26.945-133.692q8.84,0.744,20.51,2.215t19.709-2.215q0-11.079-.6-21.052a84.262,84.262,0,0,0-4.222-21.051q-24.538-1.108-28.556,10.156T1297.108,283.887Z"/>
      <path class="cls-3" d="M1517.907,418.688q-1.2-4.8-2.011-9.972t-1.608-10.34q-22.923,15.148-47.66,15.326t-36.8-26.775a234.726,234.726,0,0,1-6.838-56.506q0-28.806-.4-57.613,0-29.17,24.131-50.966t61.534-3.693h7.641q1.6-38.034,4.827-74.971,16.487-2.579,20.913-2.955a131.561,131.561,0,0,1,14.077,0q-0.4,68.694-.4,137.017V414.255q-9.653,1.109-18.9,2.216Zm-41.827-36.563a75.3,75.3,0,0,0,18.7-2.585q7.438-2.215,14.679-11.079,0.8-5.9,1.208-10.526t0.4-14.4q0-9.781-.4-28.068t-1.208-51.519a56.861,56.861,0,0,0-16.891-19.2q-10.06-7.011-23.729,5.54a284.177,284.177,0,0,0-9.049,64.63q-0.6,31.4,8.647,65Q1473.264,381.389,1476.08,382.125Z"/>
      <path class="cls-3" d="M589.244,433.552h31.388q25.468,0,36.725,4.318a36.664,36.664,0,0,1,17.755,13.975q6.5,9.658,6.5,23.146,0,14.945-8.507,24.844t-23.093,13.781q-8.56,2.234-31.177,2.232v60.46H589.244V433.552Zm29.592,55.8h9.406q11.1,0,15.43-1.461a13.631,13.631,0,0,0,6.817-4.819,13.3,13.3,0,0,0,2.483-8.13q0-8.278-6.975-12.075-5.073-2.822-18.812-2.823h-8.349v29.308Z"/>
      <path class="cls-3" d="M696.245,433.552h84.865v26.591H725.625v25.814h55.484v26.106H725.625V549.62h55.484v26.688H696.245V433.552Z"/>
      <path class="cls-3" d="M794.368,433.552h28.387l66.518,93.941V433.552h29.592V576.308H890.4l-66.437-93.65v93.65H794.368V433.552Z"/>
      <path class="cls-3" d="M929.948,433.552h35.058q33.9,0,50.366,7.716t27.138,25.086q10.666,17.373,10.666,40.566a75.755,75.755,0,0,1-5.966,30.326,62.8,62.8,0,0,1-16.474,22.952,59.378,59.378,0,0,1-22.755,12.616q-12.249,3.494-42.447,3.494H929.948V433.552Zm29.38,26.2v90.059h13.739q20.291,0,29.432-4.275t14.955-14.377q5.811-10.1,5.813-24.871,0-22.732-13.845-35.267-12.471-11.267-40.054-11.269h-10.04Z"/>
      <path class="cls-3" d="M1101.4,433.552h30.012l59.793,142.756h-30.756L1148.289,546.9h-63.435l-12.647,29.405h-30.756ZM1116.6,471.4l-20.858,49.009h41.592Z"/>
      <path class="cls-3" d="M1201.207,433.552h28.387l66.518,93.941V433.552H1325.7V576.308h-28.467l-66.437-93.65v93.65h-29.592V433.552Z"/>
      <path class="cls-3" d="M1338.673,433.552h85.921v26.785h-28.323V576.308h-30.014V460.337h-27.584V433.552Z"/>
      <rect class="cls-3" x="466.692" y="491.538" width="85.921" height="26.785"/>
      <rect class="cls-3" x="1459.755" y="491.538" width="85.921" height="26.785"/>
    </g>
  </g>
</svg>
